<?xml version="1.0" encoding="UTF-8" standalone="no"?>
<svg width="80px" height="80px" viewBox="0 0 80 80" version="1.1" xmlns="http://www.w3.org/2000/svg" xmlns:xlink="http://www.w3.org/1999/xlink" xmlns:sketch="http://www.bohemiancoding.com/sketch/ns">
    <!-- Generator: Sketch 3.3.3 (12081) - http://www.bohemiancoding.com/sketch -->
    <title>icon-wind</title>
    <desc>Created with Sketch.</desc>
    <defs>
        <filter x="-50%" y="-50%" width="200%" height="200%" filterUnits="objectBoundingBox" id="filter-1">
            <feOffset dx="0" dy="2" in="SourceAlpha" result="shadowOffsetOuter1"></feOffset>
            <feGaussianBlur stdDeviation="2" in="shadowOffsetOuter1" result="shadowBlurOuter1"></feGaussianBlur>
            <feColorMatrix values="0 0 0 0 0   0 0 0 0 0   0 0 0 0 0  0 0 0 0.35 0" in="shadowBlurOuter1" type="matrix" result="shadowMatrixOuter1"></feColorMatrix>
            <feMerge>
                <feMergeNode in="shadowMatrixOuter1"></feMergeNode>
                <feMergeNode in="SourceGraphic"></feMergeNode>
            </feMerge>
        </filter>
    </defs>
    <g id="icon-wind" stroke="none" stroke-width="1" fill="none" fill-rule="evenodd" sketch:type="MSPage">
        <circle id="Oval-1" fill="#FFFFFF" filter="url(#filter-1)" sketch:type="MSShapeGroup" cx="38" cy="38" r="36"></circle>
        <g id="icon-wind-copy" sketch:type="MSLayerGroup" transform="translate(16.301587, 18.000000)" fill="#000000">
            <g id="Shape-+-Path-6-+-Path-6-Copy" sketch:type="MSShapeGroup">
                <path d="M5.16506078,21.2022497 C5.16434813,21.1600357 5.1639605,21.1176972 5.16389789,21.0752342 C5.16389789,19.2321828 5.79464204,17.6287282 7.05613034,16.2648702 C8.31761864,14.9010122 9.87392669,14.1085001 11.7250545,13.8873339 L12.8901594,13.8873339 C13.1651355,13.8873339 13.3026235,13.7625736 13.3026235,13.5130528 L13.4684596,12.2243346 C13.6924093,9.83120328 14.7030173,7.82794826 16.5002838,6.21456947 C18.2975503,4.60119069 20.4151497,3.7945013 22.8530822,3.7945013 C25.2626666,3.7945013 27.3703442,4.60119069 29.1761151,6.21456947 C30.981886,7.82794826 32.0095029,9.83120328 32.2589658,12.2243346 L32.4248019,13.5130528 C32.4248019,13.7625736 32.5566203,13.8873339 32.8202572,13.8873339 L36.3921117,13.8873339 C38.3566317,13.8873339 40.0631844,14.600453 41.5117699,16.0266912 C42.9603553,17.4529294 43.6832306,19.1357771 43.6803958,21.0752342 C43.6803958,22.9976785 43.0127992,24.6649311 41.677606,26.0769919 C40.3424127,27.4890528 37.7360445,28.2447038 35.8395598,28.3439451 C35.5475749,28.3439451 25.346296,28.3439463 25.346296,28.3439463 L25.346296,32.0782515 C25.346296,32.0782515 35.5475749,32.0782506 35.8395598,32.0782506 C38.7877572,31.9818449 42.2757498,30.8675077 44.3224792,28.735239 C46.3692085,26.6029704 47.3939906,24.0496355 47.3968254,21.0752342 C47.3968254,19.0790678 46.9049867,17.2445228 45.9213093,15.5715993 C44.9376319,13.8986758 43.6024387,12.5787675 41.9157296,11.6118744 C40.2290205,10.6449813 38.3878145,10.1643703 36.3921117,10.1700412 L35.6862452,10.1700412 C34.9662047,7.20698173 33.4127315,4.77698943 31.0258255,2.88006429 C28.6389195,0.983139148 25.9146718,0.0346765765 22.8530822,0.0346765765 C19.7262921,0.0346765765 16.948183,1.00440512 14.518755,2.94386222 C12.0893269,4.88331932 10.5287667,7.36860315 9.83707422,10.3997137 C7.40197657,10.9668065 5.38501269,12.2512715 3.78618257,14.2531088 C2.18735245,16.254946 1.38793739,18.5289878 1.38793739,21.0752342 C1.38793739,21.1176588 1.38794559,21.1599973 1.38796782,21.2022497 L5.1650574,21.2022496 Z" id="Shape"></path>
                <path d="M-8.8817842e-16,22.5638949 L23.3687485,22.5638948 C23.3687485,22.5638948 25.6534837,22.6375174 25.6534837,20.7348161 C25.6534837,18.8321147 21.2903003,19.707474 21.2903003,19.707474 C21.2903003,19.707474 19.888631,17.3065454 21.6642517,16.2396929 C23.4398723,15.1728403 29.2513528,16.4175928 29.2513528,20.2358784 C29.2513528,26.0146682 23.3687451,25.9109928 23.3687451,25.9109928 C23.3687451,25.9109928 13.9967725,26.0797519 -8.8817842e-16,26.188985 L0,22.5638949 Z" id="Path-6"></path>
                <path d="M-8.8817842e-16,31.0864657 L18.5097771,31.0864657 C18.5097771,31.0864657 20.7945124,31.0128432 20.7945124,32.9155445 C20.7945124,34.8182458 16.4313289,33.9428866 16.4313289,33.9428866 C16.4313289,33.9428866 15.0296596,36.3438152 16.8052803,37.4106677 C18.5809009,38.4775202 24.3923814,37.2327678 24.3923814,33.4144821 C24.3923814,27.6356923 18.5097737,27.7393677 18.5097737,27.7393677 C18.5097737,27.7393677 11.2641815,27.6088979 2.48334686e-12,27.5031405 L0,31.0864657 Z" id="Path-6-Copy"></path>
            </g>
        </g>
    </g>
</svg>