<?xml version="1.0" encoding="UTF-8" standalone="no"?>
<svg width="80px" height="80px" viewBox="0 0 80 80" version="1.1" xmlns="http://www.w3.org/2000/svg" xmlns:xlink="http://www.w3.org/1999/xlink" xmlns:sketch="http://www.bohemiancoding.com/sketch/ns">
    <!-- Generator: Sketch 3.3.3 (12081) - http://www.bohemiancoding.com/sketch -->
    <title>icon-connection-node-ii</title>
    <desc>Created with Sketch.</desc>
    <defs></defs>
    <g id="icon-connection-node-ii" stroke="none" stroke-width="1" fill="none" fill-rule="evenodd" sketch:type="MSPage">
        <g id="connection-node-ii" sketch:type="MSLayerGroup" transform="translate(9.000000, 11.000000)" fill="#000000">
            <path d="M49.8983721,39.2525595 C47.2730233,39.2525595 44.8911628,40.2941905 43.1323256,41.9862262 L29.2074419,33.8350952 C29.6748837,32.3846786 29.9281395,30.8380357 29.9281395,29.2309881 C29.9281395,27.8072619 29.73,26.4305952 29.3595349,25.1262738 L43.6088372,17.4450357 C45.3111628,18.8814048 47.5039535,19.7474405 49.8983721,19.7474405 C55.3095349,19.7474405 59.6965116,15.330869 59.6965116,9.88320238 C59.6965116,4.43553571 55.3095349,0.0189642857 49.8983721,0.0189642857 C44.4872093,0.0189642857 40.1002326,4.43553571 40.1002326,9.88320238 C40.1002326,10.6312381 40.1853488,11.3582024 40.3423256,12.0584762 L26.4013953,19.5739524 C23.6846512,16.3591548 19.6374419,14.3194405 15.115814,14.3194405 C6.93488372,14.3194405 0.303488372,20.9955714 0.303488372,29.2316905 C0.303488372,37.4678095 6.93488372,44.1439405 15.115814,44.1439405 C19.4504651,44.1439405 23.3497674,42.2692857 26.0588372,39.2813571 L40.2216279,47.5715595 C40.1427907,48.0751667 40.1009302,48.5914167 40.1009302,49.1175 C40.1009302,54.5651667 44.487907,58.9817381 49.8990698,58.9817381 C55.3102326,58.9817381 59.6972093,54.5651667 59.6972093,49.1175 C59.6972093,43.6698333 55.3102326,39.2525595 49.8983721,39.2525595 L49.8983721,39.2525595 Z" id="Shape" sketch:type="MSShapeGroup"></path>
        </g>
    </g>
</svg>