<?xml version="1.0" encoding="UTF-8" standalone="no"?>
<svg width="80px" height="80px" viewBox="0 0 80 80" version="1.1" xmlns="http://www.w3.org/2000/svg" xmlns:xlink="http://www.w3.org/1999/xlink" xmlns:sketch="http://www.bohemiancoding.com/sketch/ns">
    <!-- Generator: Sketch 3.3.3 (12081) - http://www.bohemiancoding.com/sketch -->
    <title>icon-connection-node-iii</title>
    <desc>Created with Sketch.</desc>
    <defs></defs>
    <g id="icon-connection-node-iii" stroke="none" stroke-width="1" fill="none" fill-rule="evenodd" sketch:type="MSPage">
        <path d="M71.4028344,59.8868757 L62.6044847,54.6664012 L62.6044847,32.6215327 C62.6044847,32.6073502 62.5993274,32.5944569 62.5993274,32.578985 C62.5954595,32.4268448 62.5774089,32.2747045 62.5387292,32.1277215 C62.5322826,32.1045137 62.5206786,32.0851738 62.514232,32.0632553 C62.4768416,31.9394801 62.4278473,31.8208623 62.3659597,31.7074018 C62.3440412,31.6674327 62.3208334,31.6300423 62.2963362,31.5926519 C62.2344486,31.4946632 62.1635358,31.4031212 62.084887,31.3167365 C62.0578112,31.2883713 62.0346033,31.2587169 62.0062382,31.2316411 C61.9018029,31.1310737 61.7870531,31.0369531 61.6568313,30.9595936 L43.1111892,19.9526313 L43.1111892,11.2019866 C43.1111892,10.1331367 42.2447632,9.268 41.1772026,9.268 C40.1083527,9.268 39.243216,10.1331367 39.243216,11.2019866 L39.243216,19.9539206 L20.6962846,30.9595936 C20.5647735,31.0382424 20.4500237,31.1310737 20.3455884,31.2316411 C20.3185126,31.2574275 20.2965941,31.2857927 20.2720969,31.3128685 C20.1908695,31.4005425 20.117378,31.4946632 20.0554904,31.5939412 C20.0322826,31.6300423 20.010364,31.6661434 19.9897349,31.7035338 C19.926558,31.8208623 19.874985,31.9420588 19.8375946,32.0684126 C19.8324373,32.0890418 19.8221227,32.105803 19.8169654,32.1264322 C19.7782857,32.2747045 19.7602351,32.4268448 19.7563671,32.5802744 C19.7563671,32.5944569 19.7512098,32.6073502 19.7512098,32.6215327 L19.7512098,54.6676906 L10.9528602,59.888165 C10.0335719,60.4335493 9.73058066,61.6197277 10.2759649,62.539016 C10.6369757,63.1475771 11.2803486,63.4853801 11.941772,63.4853801 C12.2769963,63.4853801 12.617378,63.3989954 12.9268158,63.214622 L21.6890644,58.016066 L40.1908695,68.9959526 C40.1960268,68.9985312 40.2011841,68.9998205 40.2063414,69.0023992 C40.2114987,69.0062671 40.2153666,69.0114244 40.2205239,69.0140031 C40.3185126,69.069444 40.4229479,69.1003878 40.5260938,69.1390676 C40.5776668,69.1584074 40.6253718,69.1867726 40.6782341,69.2009551 C40.8419783,69.2447922 41.0095905,69.268 41.1772026,69.268 C41.3448148,69.268 41.5137163,69.2447922 41.6774605,69.2009551 C41.7238762,69.1880619 41.7664239,69.1622754 41.8115502,69.1468035 C41.9211428,69.1081238 42.0320247,69.0720227 42.1351707,69.0140031 C42.1416173,69.0101351 42.1454852,69.0049778 42.1519319,69.0011099 C42.1557998,68.9985312 42.1609571,68.9985312 42.1648251,68.9959526 L60.6679195,58.016066 L69.4301681,63.214622 C69.7396059,63.3989954 70.0799876,63.4853801 70.4165012,63.4853801 C71.0766353,63.4853801 71.7200082,63.1462878 72.081019,62.539016 C72.6251139,61.6184384 72.3208334,60.4322599 71.4028344,59.8868757 L71.4028344,59.8868757 Z M39.243216,63.934065 L23.6178937,54.6625333 L23.6178937,36.0189025 L39.243216,45.2955915 L39.243216,63.934065 L39.243216,63.934065 Z M41.178492,41.9446374 L25.4732315,32.6215327 L41.1797813,23.3010067 L56.8824631,32.6215327 L41.178492,41.9446374 L41.178492,41.9446374 Z M58.7365115,54.6625333 L43.1124785,63.934065 L43.1124785,45.2955915 L58.7365115,36.0189025 L58.7365115,54.6625333 L58.7365115,54.6625333 Z" id="Shape" fill="#000000" sketch:type="MSShapeGroup"></path>
    </g>
</svg>