<?xml version="1.0" encoding="UTF-8" standalone="no"?>
<svg width="80px" height="80px" viewBox="0 0 80 80" version="1.1" xmlns="http://www.w3.org/2000/svg" xmlns:xlink="http://www.w3.org/1999/xlink" xmlns:sketch="http://www.bohemiancoding.com/sketch/ns">
    <!-- Generator: Sketch 3.3.3 (12081) - http://www.bohemiancoding.com/sketch -->
    <title>icon-warning-water</title>
    <desc>Created with Sketch.</desc>
    <defs>
        <filter x="-50%" y="-50%" width="200%" height="200%" filterUnits="objectBoundingBox" id="filter-1">
            <feOffset dx="0" dy="2" in="SourceAlpha" result="shadowOffsetOuter1"></feOffset>
            <feGaussianBlur stdDeviation="2" in="shadowOffsetOuter1" result="shadowBlurOuter1"></feGaussianBlur>
            <feColorMatrix values="0 0 0 0 0   0 0 0 0 0   0 0 0 0 0  0 0 0 0.35 0" in="shadowBlurOuter1" type="matrix" result="shadowMatrixOuter1"></feColorMatrix>
            <feMerge>
                <feMergeNode in="shadowMatrixOuter1"></feMergeNode>
                <feMergeNode in="SourceGraphic"></feMergeNode>
            </feMerge>
        </filter>
    </defs>
    <g id="icon-warning-water" stroke="none" stroke-width="1" fill="none" fill-rule="evenodd" sketch:type="MSPage">
        <circle id="Oval-1" fill="#FFFFFF" filter="url(#filter-1)" sketch:type="MSShapeGroup" cx="40" cy="39" r="36"></circle>
        <g sketch:type="MSLayerGroup" transform="translate(17.000000, 13.000000)">
            <path d="M45.4396095,40.1173855 C46.8850477,42.9428455 45.4384792,45.2333333 42.2021418,45.2333333 L4.5633438,45.2333333 C1.32990152,45.2333333 -0.117839207,42.9394776 1.32587609,40.1173855 L20.7655454,2.1178322 C22.2109836,-0.707627768 24.5562249,-0.704259861 25.9999402,2.1178322 L45.4396095,40.1173855 L45.4396095,40.1173855 Z" id="Triangle-1" stroke="#000000" stroke-width="5" fill="#F7C404" sketch:type="MSShapeGroup"></path>
            <path d="M21.9578125,29.4208333 L21.5744792,23.6828125 C21.5026038,22.5647514 21.4666667,21.7621552 21.4666667,21.275 C21.4666667,20.6121495 21.6403628,20.0950539 21.9877604,19.7236979 C22.335158,19.3523419 22.7923583,19.1666667 23.359375,19.1666667 C24.046184,19.1666667 24.5053808,19.4042511 24.7369792,19.8794271 C24.9685775,20.3546031 25.084375,21.0394053 25.084375,21.9338542 C25.084375,22.4609401 25.0564239,22.9960042 25.0005208,23.5390625 L24.4854167,29.4447917 C24.4295136,30.147573 24.3097231,30.6866301 24.1260417,31.0619792 C23.9423602,31.4373283 23.638891,31.625 23.215625,31.625 C22.7843728,31.625 22.4848967,31.4433178 22.3171875,31.0799479 C22.1494783,30.716578 22.0296879,30.1635454 21.9578125,29.4208333 L21.9578125,29.4208333 Z M23.2875,37.303125 C22.8003448,37.303125 22.3750886,37.1454009 22.0117188,36.8299479 C21.6483489,36.514495 21.4666667,36.0732667 21.4666667,35.50625 C21.4666667,35.0111086 21.6403628,34.5898455 21.9877604,34.2424479 C22.335158,33.8950503 22.7604142,33.7213542 23.2635417,33.7213542 C23.7666692,33.7213542 24.1959184,33.8950503 24.5513021,34.2424479 C24.9066858,34.5898455 25.084375,35.0111086 25.084375,35.50625 C25.084375,36.0652806 24.9046893,36.5045123 24.5453125,36.8239583 C24.1859357,37.1434044 23.7666691,37.303125 23.2875,37.303125 L23.2875,37.303125 Z" id="!" fill="#000000" sketch:type="MSShapeGroup"></path>
        </g>
    </g>
</svg>