<?xml version="1.0" encoding="UTF-8" standalone="no"?>
<svg width="80px" height="80px" viewBox="0 0 80 80" version="1.1" xmlns="http://www.w3.org/2000/svg" xmlns:xlink="http://www.w3.org/1999/xlink" xmlns:sketch="http://www.bohemiancoding.com/sketch/ns">
    <!-- Generator: Sketch 3.3.3 (12081) - http://www.bohemiancoding.com/sketch -->
    <title>icon-wind-ii</title>
    <desc>Created with Sketch.</desc>
    <defs></defs>
    <g id="icon-wind-ii" stroke="none" stroke-width="1" fill="none" fill-rule="evenodd" sketch:type="MSPage">
        <g id="windflow" sketch:type="MSLayerGroup" transform="translate(8.000000, 16.000000)" fill="#000000">
            <path d="M56.604,26.5 L2,26.5 C1.171,26.5 0.5,25.828 0.5,25 C0.5,24.172 1.171,23.5 2,23.5 L56.604,23.5 C58.716,23.5 60.5,21.539 60.5,19.218 C60.5,16.978 58.533,14.938 56.374,14.938 C55.546,14.938 54.874,14.267 54.874,13.438 C54.874,12.609 55.546,11.938 56.374,11.938 C60.236,11.938 63.5,15.271 63.5,19.218 C63.5,23.233 60.406,26.5 56.604,26.5 L56.604,26.5 Z" id="Shape" sketch:type="MSShapeGroup"></path>
            <path d="M39.837,22.5 L9,22.5 C8.171,22.5 7.5,21.829 7.5,21 C7.5,20.171 8.171,19.5 9,19.5 L39.837,19.5 C41.142,19.5 43.584,18.898 44.03,18.703 C46.41,17.743 48.219,15.745 48.945,13.325 C49.652,10.966 49.263,8.542 47.85,6.502 C46.638,4.804 44.659,3.746 42.57,3.689 C40.604,3.647 38.784,4.468 37.581,5.974 C36.053,7.961 36.106,10.631 37.726,12.617 C39.246,14.094 41.419,14.21 43.035,12.887 C43.485,12.548 44.377,11.504 43.707,10.297 L43.653,10.19 C43.473,9.796 43.257,9.454 42.471,9.277 C42.263,9.3 42.1,9.389 41.986,9.541 C41.818,9.763 41.774,10.095 41.869,10.427 C42.097,11.224 41.635,12.053 40.838,12.281 C40.043,12.51 39.211,12.047 38.984,11.25 C38.628,9.999 38.848,8.718 39.591,7.734 C40.292,6.804 41.385,6.271 42.588,6.271 L42.857,6.295 C44.538,6.601 45.684,7.451 46.359,8.893 C47.684,11.346 46.628,13.941 44.884,15.247 C42.113,17.519 38.167,17.301 35.557,14.691 L35.465,14.591 C32.924,11.544 32.823,7.239 35.22,4.122 C37.034,1.852 39.75,0.598 42.652,0.69 C45.676,0.773 48.537,2.3 50.305,4.776 C52.233,7.558 52.78,10.982 51.819,14.186 C50.834,17.472 48.369,20.188 45.226,21.452 C44.537,21.782 41.582,22.5 39.837,22.5 L39.837,22.5 Z" id="Shape" sketch:type="MSShapeGroup"></path>
            <path d="M39.145,47.433 C36.943,47.433 34.92,46.478 33.571,44.791 C31.604,42.236 31.627,39.061 33.61,36.679 C34.138,36.042 35.086,35.956 35.722,36.487 C36.359,37.016 36.445,37.963 35.914,38.599 C34.833,39.898 34.838,41.521 35.93,42.939 C36.724,43.93 37.923,44.462 39.273,44.431 C40.757,44.39 42.16,43.644 43.024,42.433 C44.237,40.682 44.128,39.09 43.82,38.066 C43.352,36.506 42.131,35.225 40.466,34.545 C40.073,34.48 38.82,34.49 38.133,34.496 L37.427,34.5 L14,34.5 C13.171,34.5 12.5,33.828 12.5,33 C12.5,32.172 13.171,31.5 14,31.5 L38.105,31.496 C40.216,31.476 41.019,31.513 41.58,31.76 C44.099,32.782 45.961,34.765 46.693,37.203 C47.395,39.543 46.964,42.013 45.477,44.158 C44.057,46.147 41.773,47.363 39.354,47.429 C39.285,47.432 39.215,47.433 39.145,47.433 L39.145,47.433 Z" id="Shape" sketch:type="MSShapeGroup"></path>
            <path d="M48.607,40.039 C47.779,40.039 47.107,39.367 47.107,38.539 C47.107,37.711 47.779,37.039 48.607,37.039 C50.703,37.039 52.283,35.634 52.283,33.769 C52.283,31.843 50.866,30.498 48.838,30.498 L11,30.498 C10.171,30.498 9.5,29.826 9.5,28.998 C9.5,28.17 10.171,27.498 11,27.498 L48.838,27.498 C52.513,27.498 55.283,30.193 55.283,33.769 C55.283,37.285 52.351,40.039 48.607,40.039 L48.607,40.039 Z" id="Shape" sketch:type="MSShapeGroup"></path>
        </g>
    </g>
</svg>