<?xml version="1.0" encoding="UTF-8" standalone="no"?>
<svg width="80px" height="80px" viewBox="0 0 80 80" version="1.1" xmlns="http://www.w3.org/2000/svg" xmlns:xlink="http://www.w3.org/1999/xlink" xmlns:sketch="http://www.bohemiancoding.com/sketch/ns">
    <!-- Generator: Sketch 3.3.3 (12081) - http://www.bohemiancoding.com/sketch -->
    <title>icon-cloud</title>
    <desc>Created with Sketch.</desc>
    <defs>
        <filter x="-50%" y="-50%" width="200%" height="200%" filterUnits="objectBoundingBox" id="filter-1">
            <feOffset dx="0" dy="2" in="SourceAlpha" result="shadowOffsetOuter1"></feOffset>
            <feGaussianBlur stdDeviation="2" in="shadowOffsetOuter1" result="shadowBlurOuter1"></feGaussianBlur>
            <feColorMatrix values="0 0 0 0 0   0 0 0 0 0   0 0 0 0 0  0 0 0 0.35 0" in="shadowBlurOuter1" type="matrix" result="shadowMatrixOuter1"></feColorMatrix>
            <feMerge>
                <feMergeNode in="shadowMatrixOuter1"></feMergeNode>
                <feMergeNode in="SourceGraphic"></feMergeNode>
            </feMerge>
        </filter>
    </defs>
    <g id="icon-cloud" stroke="none" stroke-width="1" fill="none" fill-rule="evenodd" sketch:type="MSPage">
        <circle id="Oval-1-Copy" fill="#FFFFFF" filter="url(#filter-1)" sketch:type="MSShapeGroup" cx="40" cy="39" r="36"></circle>
        <g id="icon-cloud-copy" sketch:type="MSLayerGroup" transform="translate(15.000000, 17.000000)" fill="#312E2E">
            <g id="Group" sketch:type="MSShapeGroup">
                <path d="M51.0124996,17.2363595 C51.0124996,21.4796306 48.6858307,24.2708495 48.6858307,24.2708495 C48.6858307,24.2708495 45.7996164,28.4067774 41.0522016,28.5710009 C36.3047869,28.7352245 5.26769162,28.7365858 5.26769162,28.7365858 C5.27605432,28.7141158 0.0852122193,27.6707805 0.0852119892,23.0890991 C0.0852117591,18.5074177 3.73553633,17.0609994 4.50579525,17.0609995 C4.42415887,17.0807239 5.49955479,12.58204 10.9630538,11.8783779 C10.9799485,11.9007121 11.3780422,0.96358696 22.7877859,0.0286893197 C22.743326,0.0497677907 30.3060429,-0.670757398 34.4907868,7.02530657 C34.4966015,7.0366991 41.9010148,2.9588187 48.2607496,9.46155045 C48.2960284,9.39514147 51.0124996,12.9930884 51.0124996,17.2363595 Z" id="Path-1"></path>
            </g>
            <g id="Oval-1-+-Path-2" transform="translate(14.144531, 31.751196)" sketch:type="MSShapeGroup">
                <path d="M6.76710876,7.04311381 C6.65927998,8.83179174 5.18704848,10.2488038 3.38671875,10.2488038 C1.51628563,10.2488038 0,8.71928857 0,6.83253589 C0,5.57607183 0.672436379,4.47803403 1.67409669,3.88462946 L1.66208596,3.87718087 C1.66208596,3.87718087 6.39779694,1.10432449 7.27581693,-0.0565908155 C6.74140808,1.51983221 6.74444911,5.24995069 6.76374587,6.57213401 C6.77016817,6.65808613 6.7734375,6.74492588 6.7734375,6.83253589 C6.7734375,6.8756011 6.77264754,6.91848019 6.77108144,6.96115923 C6.77242262,7.01712888 6.77330367,7.04695565 6.77330367,7.04695565 L6.76710876,7.04311381 Z" id="Oval-1"></path>
            </g>
            <g id="Oval-1-+-Path-2" transform="translate(25.699219, 31.751196)" sketch:type="MSShapeGroup">
                <path d="M6.76710876,7.04311381 C6.65927998,8.83179174 5.18704848,10.2488038 3.38671875,10.2488038 C1.51628563,10.2488038 0,8.71928857 0,6.83253589 C0,5.57607183 0.672436379,4.47803403 1.67409669,3.88462946 L1.66208596,3.87718087 C1.66208596,3.87718087 6.39779694,1.10432449 7.27581693,-0.0565908155 C6.74140808,1.51983221 6.74444911,5.24995069 6.76374587,6.57213401 C6.77016817,6.65808613 6.7734375,6.74492588 6.7734375,6.83253589 C6.7734375,6.8756011 6.77264754,6.91848019 6.77108144,6.96115923 C6.77242262,7.01712888 6.77330367,7.04695565 6.77330367,7.04695565 L6.76710876,7.04311381 Z" id="Oval-1"></path>
            </g>
        </g>
    </g>
</svg>