<?xml version="1.0" encoding="UTF-8" standalone="no"?>
<svg width="82px" height="86px" viewBox="0 0 82 86" version="1.1" xmlns="http://www.w3.org/2000/svg" xmlns:xlink="http://www.w3.org/1999/xlink" xmlns:sketch="http://www.bohemiancoding.com/sketch/ns">
    <!-- Generator: Sketch 3.3.3 (12081) - http://www.bohemiancoding.com/sketch -->
    <title>icon-pumpstation</title>
    <desc>Created with Sketch.</desc>
    <defs>
        <filter x="-50%" y="-50%" width="200%" height="200%" filterUnits="objectBoundingBox" id="filter-1">
            <feOffset dx="0" dy="2" in="SourceAlpha" result="shadowOffsetOuter1"></feOffset>
            <feGaussianBlur stdDeviation="2" in="shadowOffsetOuter1" result="shadowBlurOuter1"></feGaussianBlur>
            <feColorMatrix values="0 0 0 0 0   0 0 0 0 0   0 0 0 0 0  0 0 0 0.35 0" in="shadowBlurOuter1" type="matrix" result="shadowMatrixOuter1"></feColorMatrix>
            <feMerge>
                <feMergeNode in="shadowMatrixOuter1"></feMergeNode>
                <feMergeNode in="SourceGraphic"></feMergeNode>
            </feMerge>
        </filter>
    </defs>
    <g id="icon-pumpstation" stroke="none" stroke-width="1" fill="none" fill-rule="evenodd" sketch:type="MSPage">
        <circle id="Oval-1" fill="#FFFFFF" filter="url(#filter-1)" sketch:type="MSShapeGroup" cx="41" cy="43" r="36"></circle>
        <g id="icon-pumpstation-copy" sketch:type="MSLayerGroup" transform="translate(18.000000, 18.000000)" fill="#000000">
            <g id="Group" sketch:type="MSShapeGroup">
                <path d="M27.9999993,26.1363643 C27.9999993,28.9157194 25.7405991,31.1688319 22.9534876,31.1688319 C20.1663762,31.1688319 17.9069759,28.9157194 17.9069759,26.1363643 C17.9069759,23.3570092 20.1663762,21.1038967 22.9534876,21.1038967 C25.7405991,21.1038967 27.9999993,23.3570092 27.9999993,26.1363643 L27.9999993,26.1363643 Z" id="Shape"></path>
                <path d="M25.232558,19.8051955 C24.0049906,19.351858 22.6924789,18.9832284 20.1860468,19.8051955 C18.6149917,8.32429966 9.25063479,10.488858 5.2093027,7.62987023 C7.56652416,3.94540318 15.5020309,-1.44273669 25.558139,1.29870136 C28.306426,7.29995239 29.7889939,13.3754511 25.232558,19.8051955 L25.232558,19.8051955 Z" id="Shape"></path>
                <path d="M16.3552975,27.1669727 C16.5753838,28.4537864 16.9115056,29.771608 18.8785525,31.525217 C9.69358567,38.6224523 16.2555574,45.6273761 15.7933575,50.547025 C11.4150001,50.3535261 2.76795918,46.1943705 0.120686316,36.1390432 C3.95828313,30.7649557 8.49321786,26.4468375 16.3552975,27.1669727 L16.3552975,27.1669727 Z" id="Shape"></path>
                <path d="M26.6635323,31.3981716 C27.6710122,30.5646943 28.6474033,29.6155034 29.1867885,27.0399273 C39.9428092,31.4235886 42.7451956,22.2541068 47.2487263,20.1934455 C49.2698624,24.0714114 49.9813959,33.6187068 42.5725629,40.9325955 C35.9866803,40.3054318 29.969176,38.5480511 26.6635323,31.3981716 L26.6635323,31.3981716 Z" id="Shape"></path>
            </g>
        </g>
    </g>
</svg>