<?xml version="1.0" encoding="UTF-8" standalone="no"?>
<svg width="80px" height="80px" viewBox="0 0 80 80" version="1.1" xmlns="http://www.w3.org/2000/svg" xmlns:xlink="http://www.w3.org/1999/xlink" xmlns:sketch="http://www.bohemiancoding.com/sketch/ns">
    <!-- Generator: Sketch 3.3.3 (12081) - http://www.bohemiancoding.com/sketch -->
    <title>icon-evaporation</title>
    <desc>Created with Sketch.</desc>
    <defs></defs>
    <g id="icon-evaporation" stroke="none" stroke-width="1" fill="none" fill-rule="evenodd" sketch:type="MSPage">
        <g sketch:type="MSLayerGroup" transform="translate(5.000000, 6.000000)" id="Shape" fill="#000000">
            <path d="M39.7561404,0.598632878 C33.074693,0.598632878 27.0732456,4.51004548 24.3845614,10.463896 C16.4467544,8.38897986 10.3133333,13.6187135 9.74144737,19.8870123 C3.97635965,20.213271 0.275877193,23.7305159 0.152105263,28.6827083 C0.0559210526,32.5247355 2.88925439,37.5477895 9.67061404,37.5477895 L55.1515789,37.5477895 L55.1992982,37.5477895 C63.4010526,37.5477895 67.2558772,32.8207303 67.2558772,27.0078648 C67.2558772,21.6578142 63.0804386,17.2319168 56.5846491,16.5631605 C56.2073684,7.69807927 48.8026754,0.600847303 39.7561404,0.600847303" sketch:type="MSShapeGroup"></path>
            <path d="M7.08407895,40.8930474 L7.08407895,47.2683769 L3.98530702,47.2683769 L9.84359649,54.1153788 L15.7205263,47.2683769 L12.6217544,47.2683769 L12.6217544,40.8930474" sketch:type="MSShapeGroup"></path>
            <path d="M18.8192982,63.8492528 L18.8192982,57.4739233 L15.7205263,57.4739233 L21.5788158,50.6269214 L27.4557456,57.4739233 L24.3569737,57.4739233 L24.3569737,63.8492528" sketch:type="MSShapeGroup"></path>
            <path d="M30.5545175,40.8930474 L30.5545175,47.2683769 L27.4557456,47.2683769 L33.3140351,54.1153788 L39.1909649,47.2683769 L36.092193,47.2683769 L36.092193,40.8930474" sketch:type="MSShapeGroup"></path>
            <path d="M42.2912281,63.8492528 L42.2912281,57.4739233 L39.1924561,57.4739233 L45.0507456,50.6269214 L50.9276754,57.4739233 L47.8289035,57.4739233 L47.8289035,63.8492528" sketch:type="MSShapeGroup"></path>
            <path d="M54.027193,40.8930474 L54.027193,47.2683769 L50.9284211,47.2683769 L56.7867105,54.1153788 L62.6636404,47.2683769 L59.5648684,47.2683769 L59.5648684,40.8930474" sketch:type="MSShapeGroup"></path>
        </g>
    </g>
</svg>