<?xml version="1.0" encoding="UTF-8" standalone="no"?>
<svg width="80px" height="80px" viewBox="0 0 80 80" version="1.1" xmlns="http://www.w3.org/2000/svg" xmlns:xlink="http://www.w3.org/1999/xlink" xmlns:sketch="http://www.bohemiancoding.com/sketch/ns">
    <!-- Generator: Sketch 3.3.3 (12081) - http://www.bohemiancoding.com/sketch -->
    <title>icon-breach</title>
    <desc>Created with Sketch.</desc>
    <defs></defs>
    <g id="icon-breach" stroke="none" stroke-width="1" fill="none" fill-rule="evenodd" sketch:type="MSPage">
        <g id="dike" sketch:type="MSLayerGroup" transform="translate(4.000000, 15.000000)" fill="#000000">
            <path d="M40.6963939,51.3579444 L28.1831616,0.289611111 C28.160303,0.195 28.0740303,0.127833333 27.9737475,0.127833333 L21.1994949,0.127833333 C21.1427172,0.127833333 21.0874141,0.150222222 21.0468586,0.189944444 C21.0070404,0.228222222 20.9834444,0.283111111 20.9834444,0.339444444 L20.9834444,51.4077778 C20.9834444,51.4633889 21.0070404,51.5175556 21.0468586,51.5565556 C21.0874141,51.5962778 21.1427172,51.6186667 21.1994949,51.6186667 L40.4869798,51.6186667 C40.5526061,51.6186667 40.6152828,51.5890556 40.6558384,51.5392222 C40.6971313,51.4865 40.7118788,51.4207778 40.6963939,51.3579444 L40.6963939,51.3579444 Z" id="Shape" sketch:type="MSShapeGroup"></path>
            <path d="M42.3562222,41.2786111 C42.9763535,41.5234444 43.6458889,41.6570556 44.3640909,41.6570556 L44.4252929,41.6570556 L44.4208687,41.6570556 C45.1530808,41.6476667 45.8307273,41.5017778 46.4545455,41.2446667 C47.0776263,40.9868333 47.6439293,40.6141667 48.1254343,40.1526667 C48.3392727,39.9475556 48.5752323,39.7792778 48.8229899,39.6398889 C49.7786263,38.8367778 50.8537172,38.1643889 52.0357273,37.6747222 C53.4662323,37.0810556 55.0427374,36.7452222 56.6819192,36.7278889 L56.6723333,36.7278889 C56.7276364,36.7278889 56.7777778,36.7271667 56.8227576,36.7271667 C58.4346566,36.7271667 59.9897778,37.0355556 61.4077475,37.5967222 C62.8271919,38.1571667 64.111697,38.9675 65.2074343,39.9706667 L65.2597879,40.0197778 L65.4898485,40.2393333 C65.9728283,40.6806111 66.5369192,41.0352222 67.1526263,41.2778889 C67.7720202,41.5227222 68.4422929,41.6563333 69.1604949,41.6563333 L69.221697,41.6563333 L69.2180101,41.6563333 C69.9480101,41.6469444 70.6271313,41.5010556 71.2502121,41.2439444 C71.8732929,40.9853889 72.4410707,40.6127222 72.9225758,40.1519444 C72.9255253,40.1512222 72.9262626,40.1483333 72.9277374,40.1476111 L72.9277374,33.4916111 C72.9262626,33.4937778 72.9255253,33.4945 72.9225758,33.4966667 C72.4418081,33.9581667 71.8732929,34.3301111 71.2502121,34.5886667 C70.6278687,34.8465 69.9502222,34.9923889 69.2209596,35.0003333 L69.1575455,35.0003333 C68.4408182,35.0003333 67.7712828,34.8652778 67.1526263,34.6218889 C66.5369192,34.3792222 65.9720909,34.0253333 65.4883737,33.5833333 L65.2597879,33.3645 L65.2081717,33.3153889 C64.111697,32.3115 62.8264545,31.5004444 61.4062727,30.9407222 C59.9875657,30.3795556 58.4324444,30.0711667 56.8212828,30.0711667 C56.7770404,30.0711667 56.726899,30.0718889 56.671596,30.0726111 L56.6819192,30.0718889 C55.0427374,30.0892222 53.4669697,30.4250556 52.0357273,31.0187222 C50.8529798,31.5091111 49.7764141,32.1807778 48.8200404,32.9867778 C48.5730202,33.1261667 48.3392727,33.2937222 48.1254343,33.4973889 C47.6446667,33.9596111 47.0768889,34.3308333 46.4545455,34.5893889 C45.8314646,34.8472222 45.1545556,34.9931111 44.4245556,35.0010556 L44.3611414,35.0010556 C43.6444141,35.0010556 42.9756162,34.866 42.3554848,34.6226111 C41.7405152,34.3799444 41.1764242,34.0260556 40.6927071,33.5840556 L40.4678081,33.3688333 L40.4110303,33.3161111 C40.2340606,33.1528889 40.0438182,33.0041111 39.8565253,32.8517222 L41.9174848,41.0814444 C42.0620101,41.1536667 42.2072727,41.2201111 42.3562222,41.2786111 L42.3562222,41.2786111 Z" id="Shape" sketch:type="MSShapeGroup"></path>
            <path d="M72.9225758,43.4236111 C72.4418081,43.8858333 71.8732929,44.2563333 71.2502121,44.5148889 C70.6271313,44.7734444 69.9480101,44.9207778 69.2180101,44.9287222 L69.221697,44.9287222 L69.1604949,44.9287222 C68.4422929,44.9287222 67.7720202,44.7943889 67.1526263,44.5495556 C66.5369192,44.3068889 65.9728283,43.9537222 65.4898485,43.511 L65.2597879,43.2928889 L65.2074343,43.2430556 C64.111697,42.2398889 62.8264545,41.4295556 61.4077475,40.8691111 C59.9897778,40.3079444 58.4346566,39.9995556 56.8227576,39.9995556 C56.7770404,39.9995556 56.7276364,40.0002778 56.6723333,40.001 L56.6819192,40.001 C55.0427374,40.0176111 53.4669697,40.3534444 52.0357273,40.9471111 C50.8529798,41.4375 49.7778889,42.1091667 48.8229899,42.913 C48.5752323,43.0523889 48.3392727,43.2199444 48.1254343,43.4250556 C47.6446667,43.8872778 47.0776263,44.2585 46.4545455,44.5163333 C45.8307273,44.7748889 45.1530808,44.9222222 44.4208687,44.9301667 L44.4252929,44.9301667 L44.3640909,44.9301667 C43.6458889,44.9301667 42.9763535,44.7958333 42.3562222,44.551 C42.2072727,44.4925 42.0620101,44.4267778 41.9174848,44.3552778 L43.7513333,51.6786111 C43.9548485,51.6887222 44.1583636,51.6937778 44.3633535,51.6937778 C44.407596,51.6937778 44.451101,51.6937778 44.4982929,51.6923333 L44.5019798,51.6923333 C46.1404242,51.6742778 47.7139798,51.3384444 49.1452222,50.7447778 C50.3272323,50.2543889 51.4030606,49.5834444 52.3572222,48.7796111 C52.6049798,48.6409444 52.8409394,48.4719444 53.0555152,48.2668333 C53.5370202,47.8053333 54.1033232,47.4333889 54.7256667,47.1755556 C55.3494848,46.917 56.0271313,46.7711111 56.7556566,46.7638889 L56.7667172,46.7624444 L56.8227576,46.7624444 C57.5380101,46.7624444 58.2075455,46.8982222 58.826202,47.1416111 C59.4411717,47.3842778 60.0037879,47.7381667 60.4852929,48.178 L60.7153535,48.3982778 L60.7669697,48.4473889 C61.8649192,49.4527222 63.150899,50.2630556 64.5710808,50.8242222 C65.9912626,51.3846667 67.5478586,51.6930556 69.1597576,51.6930556 C69.2047374,51.6930556 69.2475051,51.6930556 69.294697,51.6916111 L69.2983838,51.6916111 C70.5578182,51.6778889 71.7789091,51.4742222 72.927,51.1123889 L72.927,43.4207222 C72.9255253,43.4207222 72.9247879,43.4221667 72.9225758,43.4236111 L72.9225758,43.4236111 Z" id="Shape" sketch:type="MSShapeGroup"></path>
            <path d="M0.00958585859,40.9557778 L0.00958585859,46.0792222 L0.00958585859,46.4193889 L0.00958585859,51.5421111 L17.3784242,51.5421111 L17.3784242,46.4193889 L17.3784242,46.0792222 L17.3784242,40.9557778 L0.00958585859,40.9557778 Z" id="Shape" sketch:type="MSShapeGroup"></path>
            <path d="M0.00958585859,27.5852778 L0.00958585859,32.708 L0.00958585859,33.0488889 L0.00958585859,38.1723333 L17.3784242,38.1723333 L17.3784242,33.0488889 L17.3784242,32.708 L17.3784242,27.5852778 L0.00958585859,27.5852778 Z" id="Shape" sketch:type="MSShapeGroup"></path>
            <path d="M0.00958585859,14.2147778 L0.00958585859,19.3367778 L0.00958585859,19.6791111 L0.00958585859,24.8003889 L17.3784242,24.8003889 L17.3784242,19.6791111 L17.3784242,19.3367778 L17.3784242,14.2147778 L0.00958585859,14.2147778 Z" id="Shape" sketch:type="MSShapeGroup"></path>
            <path d="M28.5649472,11.4114299 L42.3361527,11.4114298 L42.3361527,7.41373213 L52.5002764,14.0939932 L42.3361527,20.2759282 L42.3361529,16.5661595 L28.5649472,16.5661597 L28.5649472,11.4114299 Z" id="arrow-copy" sketch:type="MSShapeGroup"></path>
        </g>
    </g>
</svg>