<?xml version="1.0" encoding="UTF-8" standalone="no"?>
<svg width="80px" height="80px" viewBox="0 0 80 80" version="1.1" xmlns="http://www.w3.org/2000/svg" xmlns:xlink="http://www.w3.org/1999/xlink" xmlns:sketch="http://www.bohemiancoding.com/sketch/ns">
    <!-- Generator: Sketch 3.3.3 (12081) - http://www.bohemiancoding.com/sketch -->
    <title>icon-connection-node-iii</title>
    <desc>Created with Sketch.</desc>
    <defs>
        <filter x="-50%" y="-50%" width="200%" height="200%" filterUnits="objectBoundingBox" id="filter-1">
            <feOffset dx="0" dy="2" in="SourceAlpha" result="shadowOffsetOuter1"></feOffset>
            <feGaussianBlur stdDeviation="2" in="shadowOffsetOuter1" result="shadowBlurOuter1"></feGaussianBlur>
            <feColorMatrix values="0 0 0 0 0   0 0 0 0 0   0 0 0 0 0  0 0 0 0.35 0" in="shadowBlurOuter1" type="matrix" result="shadowMatrixOuter1"></feColorMatrix>
            <feMerge>
                <feMergeNode in="shadowMatrixOuter1"></feMergeNode>
                <feMergeNode in="SourceGraphic"></feMergeNode>
            </feMerge>
        </filter>
    </defs>
    <g id="icon-connection-node-iii" stroke="none" stroke-width="1" fill="none" fill-rule="evenodd" sketch:type="MSPage">
        <circle id="Oval-1" fill="#FFFFFF" filter="url(#filter-1)" sketch:type="MSShapeGroup" cx="40" cy="39" r="36"></circle>
        <path d="M60.5368282,50.156476 L54.6104299,46.6400653 L54.6104299,31.7910682 C54.6104299,31.7815151 54.6069561,31.7728304 54.6069561,31.7624089 C54.6043507,31.6599301 54.5921922,31.5574514 54.5661383,31.4584465 C54.561796,31.4428141 54.5539798,31.4297872 54.5496375,31.4150233 C54.524452,31.3316507 54.4914504,31.251752 54.4497641,31.1753272 C54.4350002,31.1484048 54.4193679,31.1232194 54.402867,31.0980339 C54.3611808,31.0320307 54.3134153,30.9703697 54.260439,30.9121826 C54.2422012,30.8930764 54.2265689,30.8731017 54.2074627,30.854864 C54.1371171,30.7871238 54.0598238,30.7237259 53.9721089,30.6716181 L41.480123,23.2575411 L41.480123,17.363276 C41.480123,16.6433194 40.8965152,16.0605801 40.177427,16.0605801 C39.4574704,16.0605801 38.8747311,16.6433194 38.8747311,17.363276 L38.8747311,23.2584096 L26.3818767,30.6716181 C26.2932933,30.7245944 26.2160001,30.7871238 26.1456545,30.854864 C26.1274167,30.8722333 26.1126528,30.8913395 26.096152,30.9095772 C26.0414388,30.9686328 25.9919363,31.0320307 25.9502501,31.0989024 C25.9346177,31.1232194 25.9198538,31.1475364 25.9059584,31.1727218 C25.8634037,31.251752 25.8286651,31.3333877 25.8034797,31.4184971 C25.8000058,31.4323925 25.7930581,31.4436826 25.7895842,31.457578 C25.7635303,31.5574514 25.7513718,31.6599301 25.7487664,31.7632773 C25.7487664,31.7728304 25.7452926,31.7815151 25.7452926,31.7910682 L25.7452926,46.6409338 L19.8188944,50.1573445 C19.1996795,50.5247047 18.9955905,51.3236916 19.3629508,51.9429064 C19.6061207,52.3528214 20.0394842,52.580359 20.4850062,52.580359 C20.7108069,52.580359 20.9400814,52.5221719 21.1485127,52.3979815 L27.0505939,48.8963348 L39.5130521,56.292174 C39.5165259,56.293911 39.5199998,56.2947794 39.5234736,56.2965163 C39.5269475,56.2991217 39.5295529,56.3025956 39.5330268,56.3043325 C39.59903,56.3416765 39.6693756,56.3625196 39.7388527,56.3885735 C39.7735913,56.4016005 39.8057244,56.4207067 39.8413315,56.4302598 C39.9516264,56.4597876 40.0645267,56.4754199 40.177427,56.4754199 C40.2903273,56.4754199 40.4040961,56.4597876 40.5143911,56.4302598 C40.5456558,56.4215752 40.5743151,56.4042059 40.6047113,56.3937843 C40.6785307,56.3677304 40.7532186,56.3434134 40.8226958,56.3043325 C40.8270381,56.3017271 40.8296435,56.2982533 40.8339858,56.2956479 C40.8365912,56.293911 40.840065,56.293911 40.8426704,56.292174 L53.305997,48.8963348 L59.2080783,52.3979815 C59.4165096,52.5221719 59.6457841,52.580359 59.8724532,52.580359 C60.3171068,52.580359 60.7504703,52.3519529 60.9936402,51.9429064 C61.360132,51.3228231 61.1551745,50.5238363 60.5368282,50.156476 L60.5368282,50.156476 Z M38.8747311,52.8825844 L28.3498161,46.6374599 L28.3498161,34.0794708 L38.8747311,40.3280691 L38.8747311,52.8825844 L38.8747311,52.8825844 Z M40.1782955,38.0709312 L29.5995357,31.7910682 L40.179164,25.512942 L50.7561868,31.7910682 L40.1782955,38.0709312 L40.1782955,38.0709312 Z M52.005038,46.6374599 L41.4809915,52.8825844 L41.4809915,40.3280691 L52.005038,34.0794708 L52.005038,46.6374599 L52.005038,46.6374599 Z" id="Shape" fill="#000000" sketch:type="MSShapeGroup"></path>
    </g>
</svg>