<?xml version="1.0" encoding="UTF-8" standalone="no"?>
<svg width="80px" height="80px" viewBox="0 0 80 80" version="1.1" xmlns="http://www.w3.org/2000/svg" xmlns:xlink="http://www.w3.org/1999/xlink" xmlns:sketch="http://www.bohemiancoding.com/sketch/ns">
    <!-- Generator: Sketch 3.3.3 (12081) - http://www.bohemiancoding.com/sketch -->
    <title>icon-crane</title>
    <desc>Created with Sketch.</desc>
    <defs>
        <filter x="-50%" y="-50%" width="200%" height="200%" filterUnits="objectBoundingBox" id="filter-1">
            <feOffset dx="0" dy="2" in="SourceAlpha" result="shadowOffsetOuter1"></feOffset>
            <feGaussianBlur stdDeviation="2" in="shadowOffsetOuter1" result="shadowBlurOuter1"></feGaussianBlur>
            <feColorMatrix values="0 0 0 0 0   0 0 0 0 0   0 0 0 0 0  0 0 0 0.35 0" in="shadowBlurOuter1" type="matrix" result="shadowMatrixOuter1"></feColorMatrix>
            <feMerge>
                <feMergeNode in="shadowMatrixOuter1"></feMergeNode>
                <feMergeNode in="SourceGraphic"></feMergeNode>
            </feMerge>
        </filter>
    </defs>
    <g id="icon-crane" stroke="none" stroke-width="1" fill="none" fill-rule="evenodd" sketch:type="MSPage">
        <circle id="Oval-1-Copy" fill="#FFFFFF" filter="url(#filter-1)" sketch:type="MSShapeGroup" cx="39" cy="38" r="36"></circle>
        <g id="icon-crane-copy" sketch:type="MSLayerGroup" transform="translate(17.684211, 15.062500)" fill="#383838">
            <g id="Crane" sketch:type="MSShapeGroup">
                <g id="Path-1-+-Path-2-+-Path-3" transform="translate(0.000000, 8.925000)">
                    <g>
                        <g id="Path-1-+-Path-2">
                            <path d="M-0.152516516,4.72378948 L12.0431797,4.72378948 L12.0431797,1.07965502 C12.0431797,1.07965502 12.1327235,-0.189552853 13.5208441,-0.189552875 C14.9089647,-0.189552897 17.860279,-0.189552875 17.860279,-0.189552875 L17.860279,15.9394109 L-0.0814976723,15.9394109 L-0.152516516,4.72378948 Z" id="Path-1"></path>
                            <path d="M17.335279,4.72378954 L22.6187897,4.72378948 L22.6187897,1.07965502 C22.6187897,1.07965502 22.6918141,-0.189552853 23.8238485,-0.189552875 C24.9558829,-0.189552897 27.3627266,-0.189552875 27.3627266,-0.189552875 L27.3627266,15.9394109 L17.335279,15.9394111" id="Path-2" transform="translate(22.349003, 7.874929) scale(-1, 1) translate(-22.349003, -7.874929) "></path>
                        </g>
                        <path d="M40.2062412,14.0967879 L40.2617172,19.7009768 L29.4853944,19.7009768 L29.4853943,16.7293866 C29.4853943,16.7293866 29.5879481,15.9013326 28.7970155,15.9013326 L27.3,15.9013326 L27.3,4.75796553 C27.3270898,4.75796553 39.8843728,3.12945697 40.2062412,14.0967879 Z" id="Path-3"></path>
                    </g>
                </g>
                <g id="Rectangle-1-+-Oval-1-+-Oval-2-+-Path-4" transform="translate(4.200000, 0.000000)">
                    <g id="Rectangle-1-+-Oval-1-+-Oval-2" transform="translate(0.000000, 0.525000)">
                        <rect id="Rectangle-1" x="5.25" y="1.575" width="14.7" height="4.2"></rect>
                        <ellipse id="Oval-1" cx="3.4125" cy="3.4125" rx="3.4125" ry="3.4125"></ellipse>
                        <ellipse id="Oval-2" cx="21.7875" cy="3.4125" rx="3.4125" ry="3.4125"></ellipse>
                    </g>
                    <path d="M15.8163484,1.72070151 C15.8163484,1.72070151 15.2588028,0.0408118876 13.3726318,0.0564926147 L12.6663484,0.0408118211 C10.7077899,0.0408118876 10.1502443,1.72070151 10.1502443,1.72070151 L10.1502443,8.99299562 L15.8163482,8.99299569 L15.8163484,1.72070151 Z" id="Path-4"></path>
                </g>
            </g>
            <path d="M35.6841811,49.6221571 C41.3502114,48.7100657 41.9663977,45.4371701 41.9663977,43.0704303 C41.9663977,40.7036904 40.3958121,38.1975226 38.9402796,36.2717996 C37.4847472,34.3460767 35.0485593,30.7425765 35.0485593,30.7425765 C35.0485593,30.7425765 32.6123709,34.3460767 31.1568384,36.2717996 C29.7013059,38.1975226 28.1307203,40.7036904 28.1307203,43.0704303 C28.1307203,45.4371701 28.8152316,48.7100662 34.4812619,49.6221576 L35.6855455,49.6490613 L35.6841811,49.6221571 Z M35.3070472,44.3471352 C36.4841357,44.1576529 36.6121452,43.4777258 36.6121452,42.9860478 C36.6121452,42.4943699 36.2858642,41.9737265 35.9834848,41.5736675 C35.6811055,41.1736085 35.175,40.425 35.175,40.425 C35.175,40.425 34.6688945,41.1736085 34.3665152,41.5736675 C34.0641358,41.9737265 33.7378548,42.4943699 33.7378548,42.9860478 C33.7378548,43.4777258 33.8800585,44.157653 35.057147,44.3471353 L35.3073306,44.3527244 L35.3070472,44.3471352 Z" id="Drop" sketch:type="MSShapeGroup"></path>
        </g>
    </g>
</svg>