<?xml version="1.0" encoding="UTF-8" standalone="no"?>
<svg width="80px" height="80px" viewBox="0 0 80 80" version="1.1" xmlns="http://www.w3.org/2000/svg" xmlns:xlink="http://www.w3.org/1999/xlink" xmlns:sketch="http://www.bohemiancoding.com/sketch/ns">
    <!-- Generator: Sketch 3.3.3 (12081) - http://www.bohemiancoding.com/sketch -->
    <title>icon-wind-ii</title>
    <desc>Created with Sketch.</desc>
    <defs>
        <filter x="-50%" y="-50%" width="200%" height="200%" filterUnits="objectBoundingBox" id="filter-1">
            <feOffset dx="0" dy="2" in="SourceAlpha" result="shadowOffsetOuter1"></feOffset>
            <feGaussianBlur stdDeviation="2" in="shadowOffsetOuter1" result="shadowBlurOuter1"></feGaussianBlur>
            <feColorMatrix values="0 0 0 0 0   0 0 0 0 0   0 0 0 0 0  0 0 0 0.35 0" in="shadowBlurOuter1" type="matrix" result="shadowMatrixOuter1"></feColorMatrix>
            <feMerge>
                <feMergeNode in="shadowMatrixOuter1"></feMergeNode>
                <feMergeNode in="SourceGraphic"></feMergeNode>
            </feMerge>
        </filter>
    </defs>
    <g id="icon-wind-ii" stroke="none" stroke-width="1" fill="none" fill-rule="evenodd" sketch:type="MSPage">
        <circle id="Oval-1" fill="#FFFFFF" filter="url(#filter-1)" sketch:type="MSShapeGroup" cx="40" cy="39" r="36"></circle>
        <g id="windflow" sketch:type="MSLayerGroup" transform="translate(14.000000, 19.000000)" fill="#000000">
            <path d="M45.1063125,20.9791667 L1.59375,20.9791667 C0.933140625,20.9791667 0.3984375,20.4471667 0.3984375,19.7916667 C0.3984375,19.1361667 0.933140625,18.6041667 1.59375,18.6041667 L45.1063125,18.6041667 C46.7893125,18.6041667 48.2109375,17.0517083 48.2109375,15.21425 C48.2109375,13.4409167 46.6434844,11.8259167 44.9230313,11.8259167 C44.2632188,11.8259167 43.7277188,11.2947083 43.7277188,10.6384167 C43.7277188,9.982125 44.2632188,9.45091667 44.9230313,9.45091667 C48.0005625,9.45091667 50.6015625,12.0895417 50.6015625,15.21425 C50.6015625,18.3927917 48.1360313,20.9791667 45.1063125,20.9791667 L45.1063125,20.9791667 Z" id="Shape" sketch:type="MSShapeGroup"></path>
            <path d="M31.7451094,17.8125 L7.171875,17.8125 C6.51126562,17.8125 5.9765625,17.2812917 5.9765625,16.625 C5.9765625,15.9687083 6.51126562,15.4375 7.171875,15.4375 L31.7451094,15.4375 C32.7850313,15.4375 34.731,14.9609167 35.0864063,14.8065417 C36.9829688,14.0465417 38.4245156,12.4647917 39.0030469,10.5489583 C39.5664375,8.68141667 39.2564531,6.76241667 38.1304687,5.14741667 C37.1646562,3.80316667 35.5876406,2.96558333 33.9229688,2.92045833 C32.3563125,2.88720833 30.906,3.53716667 29.9473594,4.72941667 C28.7297344,6.30245833 28.7719688,8.41620833 30.0629063,9.98845833 C31.2741563,11.15775 33.0057656,11.2495833 34.2935156,10.2022083 C34.6521094,9.93383333 35.3629219,9.10733333 34.8290156,8.15179167 L34.7859844,8.06708333 C34.6425469,7.75516667 34.4704219,7.48441667 33.8440781,7.34429167 C33.6783281,7.3625 33.5484375,7.43295833 33.4575938,7.55329167 C33.3237187,7.72904167 33.2886562,7.991875 33.3643594,8.25470833 C33.5460469,8.88566667 33.1778906,9.54195833 32.5427813,9.72245833 C31.9092656,9.90375 31.2462656,9.53720833 31.065375,8.90625 C30.7816875,7.915875 30.957,6.90175 31.5490781,6.12275 C32.1076875,5.3865 32.9786719,4.96454167 33.9373125,4.96454167 L34.1516719,4.98354167 C35.4912188,5.22579167 36.4044375,5.89870833 36.9423281,7.04029167 C37.9981875,8.98225 37.1566875,11.036625 35.7669375,12.0705417 C33.5587969,13.8692083 30.4143281,13.696625 28.3344844,11.630375 L28.2611719,11.5512083 C26.2363125,9.139 26.1558281,5.730875 28.0659375,3.26325 C29.5114688,1.46616667 31.6757813,0.473416667 33.9883125,0.54625 C36.3980625,0.611958333 38.6779219,1.82083333 40.0867969,3.781 C41.6231719,5.98341667 42.0590625,8.69408333 41.2932656,11.2305833 C40.5083438,13.832 38.5440469,15.9821667 36.0394688,16.9828333 C35.4904219,17.2440833 33.1356563,17.8125 31.7451094,17.8125 L31.7451094,17.8125 Z" id="Shape" sketch:type="MSShapeGroup"></path>
            <path d="M31.1936719,37.551125 C29.4389531,37.551125 27.826875,36.7950833 26.7518906,35.4595417 C25.1844375,33.4368333 25.2027656,30.9232917 26.7829688,29.0375417 C27.2037188,28.53325 27.9591562,28.4651667 28.4659688,28.8855417 C28.9735781,29.3043333 29.0421094,30.0540417 28.6189688,30.5575417 C27.7575469,31.5859167 27.7615313,32.8707917 28.6317188,33.993375 C29.2644375,34.7779167 30.2198906,35.1990833 31.2956719,35.1745417 C32.4782344,35.1420833 33.59625,34.5515 34.28475,33.5927917 C35.2513594,32.2065833 35.1645,30.94625 34.9190625,30.1355833 C34.546125,28.9005833 33.5731406,27.8864583 32.2463438,27.348125 C31.9331719,27.2966667 30.9346875,27.3045833 30.3872344,27.3093333 L29.8246406,27.3125 L11.15625,27.3125 C10.4956406,27.3125 9.9609375,26.7805 9.9609375,26.125 C9.9609375,25.4695 10.4956406,24.9375 11.15625,24.9375 L30.3649219,24.9343333 C32.047125,24.9185 32.6870156,24.9477917 33.1340625,25.1433333 C35.1413906,25.9524167 36.6251719,27.5222917 37.2084844,29.452375 C37.7678906,31.304875 37.4244375,33.2602917 36.2394844,34.9584167 C35.1079219,36.5330417 33.2878594,37.4957083 31.3602188,37.5479583 C31.3052344,37.5503333 31.2494531,37.551125 31.1936719,37.551125 L31.1936719,37.551125 Z" id="Shape" sketch:type="MSShapeGroup"></path>
            <path d="M38.7337031,31.6975417 C38.0738906,31.6975417 37.5383906,31.1655417 37.5383906,30.5100417 C37.5383906,29.8545417 38.0738906,29.3225417 38.7337031,29.3225417 C40.4039531,29.3225417 41.6630156,28.21025 41.6630156,26.7337917 C41.6630156,25.2090417 40.5338438,24.14425 38.9177813,24.14425 L8.765625,24.14425 C8.10501563,24.14425 7.5703125,23.61225 7.5703125,22.95675 C7.5703125,22.30125 8.10501563,21.76925 8.765625,21.76925 L38.9177813,21.76925 C41.8462969,21.76925 44.0536406,23.9027917 44.0536406,26.7337917 C44.0536406,29.5172917 41.7172031,31.6975417 38.7337031,31.6975417 L38.7337031,31.6975417 Z" id="Shape" sketch:type="MSShapeGroup"></path>
        </g>
    </g>
</svg>