<?xml version="1.0" encoding="UTF-8" standalone="no"?>
<svg width="80px" height="80px" viewBox="0 0 80 80" version="1.1" xmlns="http://www.w3.org/2000/svg" xmlns:xlink="http://www.w3.org/1999/xlink" xmlns:sketch="http://www.bohemiancoding.com/sketch/ns">
    <!-- Generator: Sketch 3.3.3 (12081) - http://www.bohemiancoding.com/sketch -->
    <title>icon-culvert</title>
    <desc>Created with Sketch.</desc>
    <defs></defs>
    <g id="icon-culvert" stroke="none" stroke-width="1" fill="none" fill-rule="evenodd" sketch:type="MSPage">
        <g sketch:type="MSLayerGroup" transform="translate(12.500000, 26.621622)" id="Page-1" fill="#000000">
            <g sketch:type="MSShapeGroup">
                <g id="Group">
                    <path d="M3.59137457,0.764655036 L16.0062223,13.4378959 L3.49447715,25.9819402 L0.984216639,23.3704273 L10.7995276,13.4542269 L0.902924409,3.50137247 L3.59137457,0.764655036 L3.59137457,0.764655036 Z" id="Path-1"></path>
                    <path d="M41.5214592,0.764655036 L53.9363068,13.4378959 L41.4245617,25.9819402 L38.9143012,23.3704273 L48.7296122,13.4542269 L38.8330089,3.50137247 L41.5214592,0.764655036 L41.5214592,0.764655036 Z" id="Path-1" transform="translate(46.384658, 13.373298) scale(-1, 1) translate(-46.384658, -13.373298) "></path>
                    <path d="M18.4068834,9.14646458 L26.0269412,9.14646458 L26.0269412,17.7690021 L18.4185503,17.7690021 L18.4068834,9.14646458 L18.4068834,9.14646458 Z" id="Path-2"></path>
                    <path d="M28.8122889,9.14646458 L36.4323466,9.14646458 L36.4323466,17.7690021 L28.8239557,17.7690021 L28.8122889,9.14646458 L28.8122889,9.14646458 Z" id="Path-2"></path>
                </g>
            </g>
        </g>
    </g>
</svg>