<?xml version="1.0" encoding="UTF-8" standalone="no"?>
<svg width="85px" height="100px" viewBox="0 0 85 100" version="1.1" xmlns="http://www.w3.org/2000/svg" xmlns:xlink="http://www.w3.org/1999/xlink" xmlns:sketch="http://www.bohemiancoding.com/sketch/ns">
    <!-- Generator: Sketch 3.1.1 (8761) - http://www.bohemiancoding.com/sketch -->
    <title>icon-crane 2</title>
    <desc>Created with Sketch.</desc>
    <defs></defs>
    <g id="Page-1" stroke="none" stroke-width="1" fill="none" fill-rule="evenodd" sketch:type="MSPage">
        <g id="icon-crane" sketch:type="MSLayerGroup" transform="translate(4.000000, 4.000000)" fill="#383838">
            <g id="Crane" sketch:type="MSShapeGroup">
                <g id="Path-1-+-Path-2-+-Path-3" transform="translate(0.000000, 17.000000)">
                    <g>
                        <g id="Path-1-+-Path-2">
                            <path d="M-0.290507649,8.99769425 L22.9393898,8.99769425 L22.9393898,2.05648574 C22.9393898,2.05648574 23.1099495,-0.361053053 25.7539888,-0.361053095 C28.398028,-0.361053137 34.019579,-0.361053095 34.019579,-0.361053095 L34.019579,30.3607827 L-0.155233662,30.3607827 L-0.290507649,8.99769425 Z" id="Path-1"></path>
                            <path d="M33.0195791,8.99769437 L43.0834089,8.99769425 L43.0834089,2.05648574 C43.0834089,2.05648574 43.222503,-0.361053053 45.3787591,-0.361053095 C47.5350151,-0.361053137 52.1194793,-0.361053095 52.1194793,-0.361053095 L52.1194793,30.3607827 L33.019579,30.360783" id="Path-2" transform="translate(42.569529, 14.999865) scale(-1, 1) translate(-42.569529, -14.999865) "></path>
                        </g>
                        <path d="M76.5833165,26.8510246 L76.6889851,37.52567 L56.162656,37.52567 L56.1626558,31.8654982 C56.1626558,31.8654982 56.3579965,30.2882525 54.8514581,30.2882525 L52,30.2882525 L52,9.06279149 C52.0515995,9.06279149 75.9702339,5.96087042 76.5833165,26.8510246 Z" id="Path-3"></path>
                    </g>
                </g>
                <g id="Rectangle-1-+-Oval-1-+-Oval-2-+-Path-4" transform="translate(8.000000, 0.000000)">
                    <g id="Rectangle-1-+-Oval-1-+-Oval-2" transform="translate(0.000000, 1.000000)">
                        <rect id="Rectangle-1" x="10" y="3" width="28" height="8"></rect>
                        <circle id="Oval-1" cx="6.5" cy="6.5" r="6.5"></circle>
                        <circle id="Oval-2" cx="41.5" cy="6.5" r="6.5"></circle>
                    </g>
                    <path d="M30.1263779,3.27752668 C30.1263779,3.27752668 29.0643863,0.0777369288 25.4716797,0.10760498 L24.1263779,0.0777368022 C20.3957903,0.0777369288 19.3337988,3.27752668 19.3337988,3.27752668 L19.3337988,17.1295155 L30.1263774,17.1295156 L30.1263779,3.27752668 Z" id="Path-4"></path>
                </g>
            </g>
            <path d="M67.9698688,94.5183945 C78.7623074,92.7810776 79.9359957,86.5469906 79.9359957,82.0389148 C79.9359957,77.5308389 76.9444041,72.7571859 74.1719612,69.0891421 C71.3995184,65.4210984 66.7591605,58.5572885 66.7591605,58.5572885 C66.7591605,58.5572885 62.1188018,65.4210984 59.3463589,69.0891421 C56.5739161,72.7571859 53.5823245,77.5308389 53.5823245,82.0389148 C53.5823245,86.5469906 54.8861555,92.7810784 65.6785941,94.5183954 L67.9724675,94.5696405 L67.9698688,94.5183945 Z M67.2515185,84.4707337 C69.4935918,84.1098151 69.7374194,82.8147158 69.7374194,81.8781864 C69.7374194,80.9416569 69.1159317,79.9499552 68.5399711,79.1879381 C67.9640104,78.425921 67.0000001,77 67.0000001,77 C67.0000001,77 66.0359896,78.425921 65.4600289,79.1879381 C64.8840683,79.9499552 64.2625806,80.9416569 64.2625806,81.8781864 C64.2625806,82.8147158 64.5334447,84.1098153 66.775518,84.4707339 L67.2520583,84.4813798 L67.2515185,84.4707337 Z" id="Drop" sketch:type="MSShapeGroup"></path>
        </g>
    </g>
</svg>