<?xml version="1.0" encoding="UTF-8" standalone="no"?>
<svg width="80px" height="80px" viewBox="0 0 80 80" version="1.1" xmlns="http://www.w3.org/2000/svg" xmlns:xlink="http://www.w3.org/1999/xlink" xmlns:sketch="http://www.bohemiancoding.com/sketch/ns">
    <!-- Generator: Sketch 3.3.3 (12081) - http://www.bohemiancoding.com/sketch -->
    <title>icon-marker</title>
    <desc>Created with Sketch.</desc>
    <defs></defs>
    <g id="icon-marker" stroke="none" stroke-width="1" fill="none" fill-rule="evenodd" sketch:type="MSPage">
        <path d="M51.5,50 C51.5,52.8984375 50.4746094,55.3730469 48.4238281,57.4238281 C46.3730469,59.4746094 43.8984375,60.5 41,60.5 C38.1015625,60.5 35.6269531,59.4746094 33.5761719,57.4238281 C31.5253906,55.3730469 30.5,52.8984375 30.5,50 C30.5,47.1015625 31.5253906,44.6269531 33.5761719,42.5761719 C35.6269531,40.5253906 38.1015625,39.5 41,39.5 C43.8984375,39.5 46.3730469,40.5253906 48.4238281,42.5761719 C50.4746094,44.6269531 51.5,47.1015625 51.5,50 L51.5,50 Z M62,50 C62,47.0195313 61.5488281,44.5722656 60.6464844,42.6582031 L45.7167969,10.9121094 C45.2792969,10.0097656 44.6298828,9.29882812 43.7685547,8.77929688 C42.9072266,8.25976562 41.984375,8 41,8 C40.015625,8 39.0927734,8.25976562 38.2314453,8.77929688 C37.3701172,9.29882812 36.734375,10.0097656 36.3242188,10.9121094 L21.3535156,42.6582031 C20.4511719,44.5722656 20,47.0195313 20,50 C20,55.796875 22.0507812,60.7460938 26.1523438,64.8476562 C30.2539062,68.9492188 35.203125,71 41,71 C46.796875,71 51.7460938,68.9492188 55.8476562,64.8476562 C59.9492188,60.7460938 62,55.796875 62,50 L62,50 Z" id="marker" fill="#000000" sketch:type="MSShapeGroup"></path>
    </g>
</svg>