<?xml version="1.0" encoding="UTF-8" standalone="no"?>
<svg width="43px" height="45px" viewBox="0 0 43 45" version="1.1" xmlns="http://www.w3.org/2000/svg" xmlns:xlink="http://www.w3.org/1999/xlink" xmlns:sketch="http://www.bohemiancoding.com/sketch/ns">
    <!-- Generator: Sketch 3.1.1 (8761) - http://www.bohemiancoding.com/sketch -->
    <title>icon-pumpstation 2</title>
    <desc>Created with Sketch.</desc>
    <defs></defs>
    <g id="Page-1" stroke="none" stroke-width="1" fill="none" fill-rule="evenodd" sketch:type="MSPage">
        <g id="pumpstation" sketch:type="MSLayerGroup" fill="#000000">
            <g id="Group" sketch:type="MSShapeGroup">
                <path d="M24.571428,23.0000006 C24.571428,25.4458331 22.588689,27.4285721 20.1428565,27.4285721 C17.697024,27.4285721 15.714285,25.4458331 15.714285,23.0000006 C15.714285,20.5541681 17.697024,18.5714291 20.1428565,18.5714291 C22.588689,18.5714291 24.571428,20.5541681 24.571428,23.0000006 L24.571428,23.0000006 Z" id="Shape"></path>
                <path d="M22.142857,17.428572 C21.065604,17.029635 19.913808,16.705241 17.714286,17.428572 C16.335605,7.3253837 8.117904,9.230195 4.5714289,6.7142858 C6.640011,3.4719548 13.603823,-1.26960829 22.428571,1.1428572 C24.840333,6.4239581 26.141362,11.770397 22.142857,17.428572 L22.142857,17.428572 Z" id="Shape"></path>
                <path d="M14.352608,23.906936 C14.545745,25.039332 14.840709,26.199015 16.566893,27.742191 C8.506616,33.987758 14.265081,40.152091 13.859477,44.481382 C10.017245,44.311103 2.4290254,40.651046 0.1059084,31.802358 C3.4735954,27.073161 7.453232,23.273217 14.352608,23.906936 L14.352608,23.906936 Z" id="Shape"></path>
                <path d="M23.39861,27.630391 C24.282725,26.896931 25.139558,26.061643 25.612896,23.795136 C35.051853,27.652758 37.51109,19.583614 41.463168,17.770232 C43.236818,21.182842 43.861225,29.584462 37.359596,36.020684 C31.580148,35.46878 26.299481,33.922285 23.39861,27.630391 L23.39861,27.630391 Z" id="Shape"></path>
            </g>
        </g>
    </g>
</svg>