<?xml version="1.0" encoding="UTF-8" standalone="no"?>
<svg width="82px" height="86px" viewBox="0 0 82 86" version="1.1" xmlns="http://www.w3.org/2000/svg" xmlns:xlink="http://www.w3.org/1999/xlink" xmlns:sketch="http://www.bohemiancoding.com/sketch/ns">
    <!-- Generator: Sketch 3.3.3 (12081) - http://www.bohemiancoding.com/sketch -->
    <title>icon-pumpstation</title>
    <desc>Created with Sketch.</desc>
    <defs></defs>
    <g id="icon-pumpstation" stroke="none" stroke-width="1" fill="none" fill-rule="evenodd" sketch:type="MSPage">
        <g sketch:type="MSLayerGroup" transform="translate(1.000000, 2.000000)" id="Group" fill="#000000">
            <g sketch:type="MSShapeGroup">
                <path d="M45.7142847,42.8636374 C45.7142847,47.4217798 42.0254679,51.1168843 37.4750819,51.1168843 C32.9246958,51.1168843 29.2358791,47.4217798 29.2358791,42.8636374 C29.2358791,38.305495 32.9246958,34.6103905 37.4750819,34.6103905 C42.0254679,34.6103905 45.7142847,38.305495 45.7142847,42.8636374 L45.7142847,42.8636374 Z" id="Shape"></path>
                <path d="M41.196013,32.4805205 C39.1918214,31.737047 37.0489451,31.1324946 32.9568112,32.4805205 C30.3918233,13.6518514 15.1030772,17.201727 8.504984,12.5129872 C12.3535088,6.47046122 25.3094381,-2.36608818 41.727574,2.12987024 C46.214573,11.9719219 48.6350921,21.9357399 41.196013,32.4805205 L41.196013,32.4805205 Z" id="Shape"></path>
                <path d="M26.7025265,44.5538353 C27.0618512,46.6642096 27.6106214,48.825437 30.8221265,51.701356 C15.8262623,63.3408217 26.5396856,74.8288969 25.7850735,82.897121 C18.6367349,82.5797829 4.51911702,75.7587675 0.197038884,59.2680308 C6.46250307,50.4545273 13.8664781,43.3728135 26.7025265,44.5538353 L26.7025265,44.5538353 Z" id="Shape"></path>
                <path d="M43.5322977,51.4930014 C45.1771628,50.1260987 46.7712707,48.5694256 47.6518995,44.3454807 C65.2127498,51.5346854 69.7880744,36.4967352 77.1407777,33.1172505 C80.4405916,39.4771146 81.6022791,55.1346792 69.5062251,67.1294565 C58.7537637,66.1009082 48.929267,63.2188039 43.5322977,51.4930014 L43.5322977,51.4930014 Z" id="Shape"></path>
            </g>
        </g>
    </g>
</svg>