<?xml version="1.0" encoding="UTF-8" standalone="no"?>
<svg
   xmlns:dc="http://purl.org/dc/elements/1.1/"
   xmlns:cc="http://creativecommons.org/ns#"
   xmlns:rdf="http://www.w3.org/1999/02/22-rdf-syntax-ns#"
   xmlns:svg="http://www.w3.org/2000/svg"
   xmlns="http://www.w3.org/2000/svg"
   xmlns:sodipodi="http://sodipodi.sourceforge.net/DTD/sodipodi-0.dtd"
   xmlns:inkscape="http://www.inkscape.org/namespaces/inkscape"
   width="25px"
   height="25px"
   viewBox="0 0 25 25"
   version="1.1"
   id="svg4209"
   inkscape:version="0.48.4 r9939"
   sodipodi:docname="manhole.svg">
  <metadata
     id="metadata4226">
    <rdf:RDF>
      <cc:Work
         rdf:about="">
        <dc:format>image/svg+xml</dc:format>
        <dc:type
           rdf:resource="http://purl.org/dc/dcmitype/StillImage" />
      </cc:Work>
    </rdf:RDF>
  </metadata>
  <sodipodi:namedview
     pagecolor="#ffffff"
     bordercolor="#666666"
     borderopacity="1"
     objecttolerance="10"
     gridtolerance="10"
     guidetolerance="10"
     inkscape:pageopacity="0"
     inkscape:pageshadow="2"
     inkscape:window-width="640"
     inkscape:window-height="480"
     id="namedview4224"
     showgrid="false"
     inkscape:zoom="9.44"
     inkscape:cx="12.5"
     inkscape:cy="12.5"
     inkscape:window-x="344"
     inkscape:window-y="81"
     inkscape:window-maximized="0"
     inkscape:current-layer="svg4209" />
  <title
     id="title4211">Slice 2</title>
  <description
     id="description4213">Created with Sketch (http://www.bohemiancoding.com/sketch)</description>
  <defs
     id="defs4215" />
  <path
     style="fill:#000000;stroke:none"
     d="M 12.5 3 C 7.2532946 3 3 7.2532946 3 12.5 C 3 17.746705 7.2532946 22 12.5 22 C 17.746705 22 22 17.746705 22 12.5 C 22 7.2532946 17.746705 3 12.5 3 z M 12.5 5 C 16.642136 5 20 8.3578642 20 12.5 C 20 16.642136 16.642136 20 12.5 20 C 8.3578642 20 5 16.642136 5 12.5 C 5 8.3578642 8.3578642 5 12.5 5 z "
     id="Oval 1" />
  <path
     d="M 12.5,17 C 14.985281,17 17,14.985281 17,12.5 17,10.014719 14.985281,8 12.5,8 10.014719,8 8,10.014719 8,12.5 8,14.985281 10.014719,17 12.5,17 z m 0,0"
     id="path4222"
     inkscape:connector-curvature="0"
     style="fill:#000000;stroke:none" />
</svg>
