<?xml version="1.0" encoding="UTF-8" standalone="no"?>
<svg width="80px" height="80px" viewBox="0 0 80 80" version="1.1" xmlns="http://www.w3.org/2000/svg" xmlns:xlink="http://www.w3.org/1999/xlink" xmlns:sketch="http://www.bohemiancoding.com/sketch/ns">
    <!-- Generator: Sketch 3.3.3 (12081) - http://www.bohemiancoding.com/sketch -->
    <title>icon-culvert</title>
    <desc>Created with Sketch.</desc>
    <defs>
        <filter x="-50%" y="-50%" width="200%" height="200%" filterUnits="objectBoundingBox" id="filter-1">
            <feOffset dx="0" dy="2" in="SourceAlpha" result="shadowOffsetOuter1"></feOffset>
            <feGaussianBlur stdDeviation="2" in="shadowOffsetOuter1" result="shadowBlurOuter1"></feGaussianBlur>
            <feColorMatrix values="0 0 0 0 0   0 0 0 0 0   0 0 0 0 0  0 0 0 0.35 0" in="shadowBlurOuter1" type="matrix" result="shadowMatrixOuter1"></feColorMatrix>
            <feMerge>
                <feMergeNode in="shadowMatrixOuter1"></feMergeNode>
                <feMergeNode in="SourceGraphic"></feMergeNode>
            </feMerge>
        </filter>
    </defs>
    <g id="icon-culvert" stroke="none" stroke-width="1" fill="none" fill-rule="evenodd" sketch:type="MSPage">
        <g id="Oval-1-+-icon-culvert" sketch:type="MSLayerGroup" transform="translate(4.000000, 2.000000)">
            <circle id="Oval-1" fill="#FFFFFF" filter="url(#filter-1)" sketch:type="MSShapeGroup" cx="36" cy="36" r="36"></circle>
            <g id="icon-culvert" transform="translate(14.000000, 24.810811)" fill="#000000" sketch:type="MSShapeGroup">
                <g id="Page-1">
                    <g id="Group">
                        <path d="M3.0036951,0.639529667 L13.3870223,11.2389675 L2.92265361,21.73035 L0.823163007,19.5461755 L9.03233214,11.2526262 L0.755173142,2.92842061 L3.0036951,0.639529667 L3.0036951,0.639529667 Z" id="Path-1"></path>
                        <path d="M34.7270386,0.639529667 L45.1103657,11.2389675 L34.645997,21.73035 L32.5465064,19.5461755 L40.7556756,11.2526262 L32.4785166,2.92842061 L34.7270386,0.639529667 L34.7270386,0.639529667 Z" id="Path-1" transform="translate(38.794441, 11.184940) scale(-1, 1) translate(-38.794441, -11.184940) "></path>
                        <path d="M15.394848,7.64977037 L21.7679872,7.64977037 L21.7679872,14.8613472 L15.4046057,14.8613472 L15.394848,7.64977037 L15.394848,7.64977037 Z" id="Path-2"></path>
                        <path d="M24.0975507,7.64977037 L30.4706899,7.64977037 L30.4706899,14.8613472 L24.1073084,14.8613472 L24.0975507,7.64977037 L24.0975507,7.64977037 Z" id="Path-2"></path>
                    </g>
                </g>
            </g>
        </g>
    </g>
</svg>