<?xml version="1.0" encoding="UTF-8" standalone="no"?>
<svg width="80px" height="80px" viewBox="0 0 80 80" version="1.1" xmlns="http://www.w3.org/2000/svg" xmlns:xlink="http://www.w3.org/1999/xlink" xmlns:sketch="http://www.bohemiancoding.com/sketch/ns">
    <!-- Generator: Sketch 3.3.3 (12081) - http://www.bohemiancoding.com/sketch -->
    <title>icon-connection-node</title>
    <desc>Created with Sketch.</desc>
    <defs></defs>
    <g id="icon-connection-node" stroke="none" stroke-width="1" fill="none" fill-rule="evenodd" sketch:type="MSPage">
        <g id="connection-node" sketch:type="MSLayerGroup" transform="translate(7.000000, 3.000000)" fill="#000000">
            <path d="M32.821,53.385 L18.741,45.257 L18.741,28.998 L32.821,20.869 L46.9,28.998 L46.9,45.256 L32.821,53.385 L32.821,53.385 Z M21.251,43.807 L32.822,50.487 L44.393,43.807 L44.393,30.447 L32.822,23.767 L21.251,30.447 L21.251,43.807 L21.251,43.807 Z" id="Shape" sketch:type="MSShapeGroup"></path>
            <path d="M33.077,11.338 C30.034,11.338 27.559,8.863 27.559,5.821 C27.559,2.778 30.034,0.302 33.077,0.302 C36.12,0.302 38.595,2.777 38.595,5.821 C38.595,8.862 36.119,11.338 33.077,11.338 M33.077,1.306 C30.587,1.306 28.562,3.331 28.562,5.821 C28.562,8.31 30.587,10.335 33.077,10.335 C35.566,10.335 37.591,8.31 37.591,5.821 C37.591,3.331 35.566,1.306 33.077,1.306" id="Shape" sketch:type="MSShapeGroup"></path>
            <path d="M5.832,26.771 L5.832,26.771 C4.868,26.771 3.916,26.515 3.077,26.031 C1.801,25.293 0.888,24.104 0.507,22.68 C0.125,21.257 0.321,19.769 1.058,18.493 C2.04,16.79 3.874,15.733 5.841,15.733 C6.804,15.733 7.757,15.989 8.595,16.473 C11.229,17.995 12.136,21.376 10.615,24.011 C9.632,25.714 7.799,26.771 5.832,26.771 M5.841,16.737 C4.231,16.737 2.731,17.603 1.927,18.995 C1.324,20.04 1.164,21.255 1.476,22.421 C1.788,23.586 2.535,24.559 3.58,25.162 C4.266,25.559 5.045,25.768 5.833,25.768 C7.442,25.768 8.943,24.903 9.747,23.511 C10.991,21.355 10.251,18.588 8.095,17.344 C7.407,16.946 6.628,16.737 5.841,16.737" id="Shape" sketch:type="MSShapeGroup"></path>
            <path d="M5.586,58.079 L5.586,58.079 C3.618,58.079 1.786,57.022 0.802,55.319 C-0.719,52.684 0.187,49.303 2.822,47.781 C3.661,47.297 4.613,47.041 5.576,47.041 C7.544,47.041 9.377,48.098 10.359,49.801 C11.097,51.077 11.292,52.564 10.91,53.988 C10.528,55.412 9.616,56.601 8.34,57.339 C7.502,57.823 6.549,58.079 5.586,58.079 M5.576,48.044 C4.789,48.044 4.009,48.253 3.324,48.65 C1.168,49.894 0.426,52.661 1.672,54.817 C2.476,56.21 3.976,57.075 5.586,57.075 C6.373,57.075 7.153,56.866 7.838,56.469 C8.883,55.866 9.629,54.893 9.942,53.728 C10.254,52.563 10.094,51.347 9.491,50.302 C8.687,48.91 7.186,48.044 5.576,48.044" id="Shape" sketch:type="MSShapeGroup"></path>
            <path d="M32.566,73.952 C29.523,73.952 27.048,71.477 27.048,68.434 C27.048,65.391 29.523,62.916 32.566,62.916 C35.609,62.916 38.084,65.391 38.084,68.434 C38.084,71.477 35.609,73.952 32.566,73.952 M32.566,63.92 C30.077,63.92 28.052,65.945 28.052,68.434 C28.052,70.924 30.077,72.948 32.566,72.948 C35.056,72.948 37.081,70.924 37.081,68.434 C37.081,65.945 35.056,63.92 32.566,63.92" id="Shape" sketch:type="MSShapeGroup"></path>
            <path d="M59.802,58.521 L59.802,58.521 C58.838,58.521 57.886,58.265 57.047,57.781 C54.413,56.259 53.506,52.878 55.027,50.243 C56.01,48.54 57.843,47.483 59.811,47.483 C60.774,47.483 61.727,47.739 62.565,48.223 C65.199,49.746 66.105,53.126 64.584,55.761 C63.602,57.463 61.769,58.521 59.802,58.521 M59.812,48.487 C58.202,48.487 56.702,49.352 55.898,50.745 C54.653,52.901 55.394,55.667 57.55,56.912 C58.236,57.308 59.015,57.518 59.802,57.518 C61.412,57.518 62.912,56.653 63.716,55.26 C64.96,53.104 64.22,50.338 62.064,49.093 C61.378,48.696 60.599,48.487 59.812,48.487" id="Shape" sketch:type="MSShapeGroup"></path>
            <path d="M60.067,27.214 L60.067,27.214 C58.099,27.214 56.267,26.157 55.283,24.454 C53.762,21.819 54.668,18.438 57.303,16.916 C58.142,16.432 59.094,16.176 60.057,16.176 C62.025,16.176 63.857,17.233 64.84,18.936 C65.577,20.212 65.773,21.699 65.391,23.123 C65.009,24.547 64.097,25.736 62.82,26.474 C61.982,26.958 61.03,27.214 60.067,27.214 M60.057,17.179 C59.27,17.179 58.49,17.388 57.805,17.785 C55.649,19.029 54.907,21.796 56.153,23.952 C56.957,25.345 58.457,26.21 60.067,26.21 L60.068,26.21 C60.855,26.21 61.634,26.001 62.32,25.604 C63.364,25.001 64.111,24.028 64.423,22.863 C64.735,21.698 64.575,20.482 63.973,19.437 C63.167,18.044 61.667,17.179 60.057,17.179" id="Shape" sketch:type="MSShapeGroup"></path>
            <rect id="Rectangle-path" sketch:type="MSShapeGroup" transform="translate(14.807238, 27.134223) rotate(206.513803) translate(-14.807238, -27.134223) " x="9.00891216" y="26.6327376" width="11.5966521" height="1.00296991"></rect>
            <rect id="Rectangle-path" sketch:type="MSShapeGroup" x="32.319" y="10.835" width="1.004" height="11.482"></rect>
            <rect id="Rectangle-path" sketch:type="MSShapeGroup" transform="translate(50.681627, 26.961671) rotate(241.294885) translate(-50.681627, -26.961671) " x="50.1801288" y="21.2191923" width="1.00299624" height="11.4849569"></rect>
            <rect id="Rectangle-path" sketch:type="MSShapeGroup" transform="translate(50.555893, 47.512134) rotate(211.272303) translate(-50.555893, -47.512134) " x="44.8134597" y="47.0101393" width="11.4848673" height="1.0039884"></rect>
            <rect id="Rectangle-path" sketch:type="MSShapeGroup" x="32.319" y="51.935" width="1.004" height="11.973"></rect>
            <rect id="Rectangle-path" sketch:type="MSShapeGroup" transform="translate(14.961066, 47.291061) rotate(241.294885) translate(-14.961066, -47.291061) " x="14.4595681" y="41.5485824" width="1.00299624" height="11.4849569"></rect>
        </g>
    </g>
</svg>