<?xml version="1.0" encoding="UTF-8" standalone="no"?>
<svg width="80px" height="80px" viewBox="0 0 80 80" version="1.1" xmlns="http://www.w3.org/2000/svg" xmlns:xlink="http://www.w3.org/1999/xlink" xmlns:sketch="http://www.bohemiancoding.com/sketch/ns">
    <!-- Generator: Sketch 3.3.3 (12081) - http://www.bohemiancoding.com/sketch -->
    <title>icon-connection-node</title>
    <desc>Created with Sketch.</desc>
    <defs>
        <filter x="-50%" y="-50%" width="200%" height="200%" filterUnits="objectBoundingBox" id="filter-1">
            <feOffset dx="0" dy="2" in="SourceAlpha" result="shadowOffsetOuter1"></feOffset>
            <feGaussianBlur stdDeviation="2" in="shadowOffsetOuter1" result="shadowBlurOuter1"></feGaussianBlur>
            <feColorMatrix values="0 0 0 0 0   0 0 0 0 0   0 0 0 0 0  0 0 0 0.35 0" in="shadowBlurOuter1" type="matrix" result="shadowMatrixOuter1"></feColorMatrix>
            <feMerge>
                <feMergeNode in="shadowMatrixOuter1"></feMergeNode>
                <feMergeNode in="SourceGraphic"></feMergeNode>
            </feMerge>
        </filter>
    </defs>
    <g id="icon-connection-node" stroke="none" stroke-width="1" fill="none" fill-rule="evenodd" sketch:type="MSPage">
        <circle id="Oval-1" fill="#FFFFFF" filter="url(#filter-1)" sketch:type="MSShapeGroup" cx="40" cy="39" r="36"></circle>
        <g id="connection-node" sketch:type="MSLayerGroup" transform="translate(19.000000, 17.000000)" fill="#000000">
            <path d="M20.388803,33.1852703 L11.6421364,28.1327297 L11.6421364,18.0257838 L20.388803,12.9726216 L29.1348485,18.0257838 L29.1348485,28.1321081 L20.388803,33.1852703 L20.388803,33.1852703 Z M13.2013788,27.2313784 L20.3894242,31.3838108 L27.5774697,27.2313784 L27.5774697,18.9265135 L20.3894242,14.7740811 L13.2013788,18.9265135 L13.2013788,27.2313784 L13.2013788,27.2313784 Z" id="Shape" sketch:type="MSShapeGroup"></path>
            <path d="M20.5478333,7.04794595 C18.6574848,7.04794595 17.1199848,5.50943243 17.1199848,3.61845946 C17.1199848,1.72686486 18.6574848,0.18772973 20.5478333,0.18772973 C22.4381818,0.18772973 23.9756818,1.72624324 23.9756818,3.61845946 C23.9756818,5.50881081 22.4375606,7.04794595 20.5478333,7.04794595 M20.5478333,0.811837838 C19.0010152,0.811837838 17.7430606,2.07062162 17.7430606,3.61845946 C17.7430606,5.16567568 19.0010152,6.42445946 20.5478333,6.42445946 C22.0940303,6.42445946 23.3519848,5.16567568 23.3519848,3.61845946 C23.3519848,2.07062162 22.0940303,0.811837838 20.5478333,0.811837838" id="Shape" sketch:type="MSShapeGroup"></path>
            <path d="M3.62290909,16.6414324 L3.62290909,16.6414324 C3.02406061,16.6414324 2.43266667,16.4822973 1.9114697,16.1814324 C1.11880303,15.7226757 0.551636364,14.9835676 0.314954545,14.0983784 C0.0776515152,13.2138108 0.199409091,12.2888378 0.657242424,11.4956486 C1.26727273,10.437027 2.40657576,9.77997297 3.6285,9.77997297 C4.22672727,9.77997297 4.81874242,9.93910811 5.33931818,10.239973 C6.97559091,11.1860811 7.5390303,13.2877838 6.59416667,14.9257568 C5.98351515,15.9843784 4.84483333,16.6414324 3.62290909,16.6414324 M3.6285,10.4040811 C2.62834848,10.4040811 1.6965303,10.9424054 1.19707576,11.8077027 C0.822484848,12.4572973 0.723090909,13.2125676 0.916909091,13.9373784 C1.11072727,14.6615676 1.57477273,15.2664054 2.22393939,15.6412432 C2.65009091,15.888027 3.13401515,16.0179459 3.6235303,16.0179459 C4.62306061,16.0179459 5.5555,15.4802432 6.05495455,14.6149459 C6.82774242,13.2747297 6.36804545,11.5547027 5.02871212,10.7814054 C4.60131818,10.534 4.11739394,10.4040811 3.6285,10.4040811" id="Shape" sketch:type="MSShapeGroup"></path>
            <path d="M3.47009091,36.1031622 L3.47009091,36.1031622 C2.24754545,36.1031622 1.10948485,35.4461081 0.498212121,34.3874865 C-0.446651515,32.7495135 0.116166667,30.6478108 1.75306061,29.7017027 C2.27425758,29.4008378 2.86565152,29.2417027 3.46387879,29.2417027 C4.68642424,29.2417027 5.82510606,29.8987568 6.43513636,30.9573784 C6.89359091,31.7505676 7.01472727,32.6749189 6.77742424,33.5601081 C6.54012121,34.4452973 5.97357576,35.1844054 5.18090909,35.6431622 C4.66033333,35.944027 4.06831818,36.1031622 3.47009091,36.1031622 M3.46387879,29.8651892 C2.97498485,29.8651892 2.49043939,29.9951081 2.06490909,30.2418919 C0.725575758,31.0151892 0.264636364,32.7352162 1.03866667,34.0754324 C1.53812121,34.9413514 2.46993939,35.4790541 3.47009091,35.4790541 C3.95898485,35.4790541 4.4435303,35.3491351 4.86906061,35.1023514 C5.51822727,34.7275135 5.98165152,34.1226757 6.17609091,33.3984865 C6.36990909,32.6742973 6.27051515,31.9184054 5.89592424,31.2688108 C5.3964697,30.4035135 4.4640303,29.8651892 3.46387879,29.8651892" id="Shape" sketch:type="MSShapeGroup"></path>
            <path d="M20.2303939,45.9701622 C18.3400455,45.9701622 16.8025455,44.4316486 16.8025455,42.5400541 C16.8025455,40.6484595 18.3400455,39.1099459 20.2303939,39.1099459 C22.1207424,39.1099459 23.6582424,40.6484595 23.6582424,42.5400541 C23.6582424,44.4316486 22.1207424,45.9701622 20.2303939,45.9701622 M20.2303939,39.7340541 C18.684197,39.7340541 17.4262424,40.9928378 17.4262424,42.5400541 C17.4262424,44.0878919 18.684197,45.3460541 20.2303939,45.3460541 C21.7772121,45.3460541 23.0351667,44.0878919 23.0351667,42.5400541 C23.0351667,40.9928378 21.7772121,39.7340541 20.2303939,39.7340541" id="Shape" sketch:type="MSShapeGroup"></path>
            <path d="M37.1497273,36.3779189 L37.1497273,36.3779189 C36.5508788,36.3779189 35.9594848,36.2187838 35.4382879,35.9179189 C33.8020152,34.9718108 33.2385758,32.8701081 34.1834394,31.2321351 C34.7940909,30.1735135 35.9327727,29.5164595 37.1553182,29.5164595 C37.7535455,29.5164595 38.3455606,29.6755946 38.8661364,29.9764595 C40.5024091,30.9231892 41.0652273,33.0242703 40.1203636,34.6622432 C39.5103333,35.7202432 38.3716515,36.3779189 37.1497273,36.3779189 M37.1559394,30.1405676 C36.1557879,30.1405676 35.2239697,30.6782703 34.7245152,31.5441892 C33.9511061,32.8844054 34.4114242,34.6038108 35.7507576,35.3777297 C36.1769091,35.6238919 36.6608333,35.7544324 37.1497273,35.7544324 C38.1498788,35.7544324 39.081697,35.2167297 39.5811515,34.3508108 C40.3539394,33.0105946 39.8942424,31.2911892 38.5549091,30.5172703 C38.1287576,30.2704865 37.6448333,30.1405676 37.1559394,30.1405676" id="Shape" sketch:type="MSShapeGroup"></path>
            <path d="M37.3143485,16.9168108 L37.3143485,16.9168108 C36.091803,16.9168108 34.9537424,16.2597568 34.3424697,15.2011351 C33.3976061,13.5631622 33.9604242,11.4614595 35.5973182,10.5153514 C36.1185152,10.2144865 36.7099091,10.0553514 37.3081364,10.0553514 C38.5306818,10.0553514 39.6687424,10.7124054 40.2793939,11.771027 C40.7372273,12.5642162 40.8589848,13.4885676 40.6216818,14.3737568 C40.3843788,15.2589459 39.8178333,15.9980541 39.0245455,16.4568108 C38.5039697,16.7576757 37.9125758,16.9168108 37.3143485,16.9168108 M37.3081364,10.6788378 C36.8192424,10.6788378 36.334697,10.8087568 35.9091667,11.0555405 C34.5698333,11.8288378 34.1088939,13.5488649 34.8829242,14.8890811 C35.3823788,15.755 36.314197,16.2927027 37.3143485,16.2927027 L37.3149697,16.2927027 C37.8038636,16.2927027 38.2877879,16.1627838 38.7139394,15.916 C39.3624848,15.5411622 39.8265303,14.9363243 40.0203485,14.2121351 C40.2141667,13.4879459 40.1147727,12.7320541 39.740803,12.0824595 C39.2401061,11.2165405 38.3082879,10.6788378 37.3081364,10.6788378" id="Shape" sketch:type="MSShapeGroup"></path>
        </g>
    </g>
</svg>