<?xml version="1.0" encoding="UTF-8" standalone="no"?>
<svg width="80px" height="80px" viewBox="0 0 80 80" version="1.1" xmlns="http://www.w3.org/2000/svg" xmlns:xlink="http://www.w3.org/1999/xlink" xmlns:sketch="http://www.bohemiancoding.com/sketch/ns">
    <!-- Generator: Sketch 3.3.3 (12081) - http://www.bohemiancoding.com/sketch -->
    <title>icon-crane</title>
    <desc>Created with Sketch.</desc>
    <defs></defs>
    <g id="icon-crane" stroke="none" stroke-width="1" fill="none" fill-rule="evenodd" sketch:type="MSPage">
        <g sketch:type="MSLayerGroup" transform="translate(7.000000, 0.000000)" fill="#383838">
            <g id="Crane" sketch:type="MSShapeGroup">
                <g id="Path-1-+-Path-2-+-Path-3" transform="translate(0.000000, 14.315789)">
                    <g>
                        <g id="Path-1-+-Path-2">
                            <path d="M-0.24463802,7.57700568 L19.3173809,7.57700568 L19.3173809,1.73177747 C19.3173809,1.73177747 19.4610101,-0.304044676 21.6875695,-0.304044711 C23.9141289,-0.304044747 28.6480665,-0.304044711 28.6480665,-0.304044711 L28.6480665,25.5669749 L-0.130723083,25.5669749 L-0.24463802,7.57700568 Z" id="Path-1"></path>
                            <path d="M27.8059613,7.57700578 L36.2807654,7.57700568 L36.2807654,1.73177747 C36.2807654,1.73177747 36.3978973,-0.304044676 38.2136919,-0.304044711 C40.0294864,-0.304044747 43.8900878,-0.304044711 43.8900878,-0.304044711 L43.8900878,25.5669749 L27.8059612,25.5669751" id="Path-2" transform="translate(35.848025, 12.631465) scale(-1, 1) translate(-35.848025, -12.631465) "></path>
                        </g>
                        <path d="M64.4912139,22.6113892 L64.580198,31.6005643 L47.2948682,31.6005643 L47.2948681,26.8341038 C47.2948681,26.8341038 47.4593654,25.5058968 46.1907015,25.5058968 L43.7894737,25.5058968 L43.7894737,7.63182442 C43.8329259,7.63182441 63.9749338,5.01968035 64.4912139,22.6113892 Z" id="Path-3"></path>
                    </g>
                </g>
                <g id="Rectangle-1-+-Oval-1-+-Oval-2-+-Path-4" transform="translate(6.736842, 0.000000)">
                    <g id="Rectangle-1-+-Oval-1-+-Oval-2" transform="translate(0.000000, 0.842105)">
                        <rect id="Rectangle-1" x="8.42105263" y="2.52631579" width="23.5789474" height="6.73684211"></rect>
                        <circle id="Oval-1" cx="5.47368421" cy="5.47368421" r="5.47368421"></circle>
                        <circle id="Oval-2" cx="34.9473684" cy="5.47368421" r="5.47368421"></circle>
                    </g>
                    <path d="M25.3695814,2.76002246 C25.3695814,2.76002246 24.4752727,0.0654626769 21.4498355,0.0906147204 L20.3169498,0.0654625703 C17.1754024,0.0654626769 16.2810937,2.76002246 16.2810937,2.76002246 L16.2810937,14.4248551 L25.369581,14.4248552 L25.3695814,2.76002246 Z" id="Path-4"></path>
                </g>
            </g>
            <path d="M57.2377843,79.5944375 C66.3261536,78.1314337 67.3145227,72.8816763 67.3145227,69.0854019 C67.3145227,65.2891275 64.7952877,61.2692092 62.4605989,58.1803302 C60.1259102,55.0914513 56.2182404,49.3114008 56.2182404,49.3114008 C56.2182404,49.3114008 52.3105699,55.0914513 49.9758812,58.1803302 C47.6411925,61.2692092 45.1219574,65.2891275 45.1219574,69.0854019 C45.1219574,72.8816763 46.2199204,78.1314344 55.3082897,79.5944382 L57.2399727,79.637592 L57.2377843,79.5944375 Z M56.6328577,71.1332495 C58.5209194,70.829318 58.7262479,69.738708 58.7262479,68.9500517 C58.7262479,68.1613953 58.2028899,67.3262781 57.7178704,66.6845795 C57.2328509,66.0428808 56.4210527,64.8421053 56.4210527,64.8421053 C56.4210527,64.8421053 55.6092544,66.0428808 55.1242349,66.6845795 C54.6392154,67.3262781 54.1158573,68.1613953 54.1158573,68.9500517 C54.1158573,69.738708 54.3439535,70.8293181 56.2320152,71.1332496 L56.6333123,71.1422146 L56.6328577,71.1332495 Z" id="Drop" sketch:type="MSShapeGroup"></path>
        </g>
    </g>
</svg>