<?xml version="1.0" encoding="UTF-8" standalone="no"?>
<svg width="80px" height="80px" viewBox="0 0 80 80" version="1.1" xmlns="http://www.w3.org/2000/svg" xmlns:xlink="http://www.w3.org/1999/xlink" xmlns:sketch="http://www.bohemiancoding.com/sketch/ns">
    <!-- Generator: Sketch 3.3.3 (12081) - http://www.bohemiancoding.com/sketch -->
    <title>icon-breach-noshield</title>
    <desc>Created with Sketch.</desc>
    <defs></defs>
    <g id="icon-breach-noshield" stroke="none" stroke-width="1" fill="none" fill-rule="evenodd" sketch:type="MSPage">
        <g id="dike" sketch:type="MSLayerGroup" transform="translate(4.000000, 5.000000)" fill="#000000">
            <path d="M28.1158559,70.1233472 L11.1167479,0.395430556 C11.0856947,0.26625 10.968494,0.174541667 10.8322607,0.174541667 L1.62950257,0.174541667 C1.5523705,0.174541667 1.47724185,0.205111111 1.42214751,0.259347222 C1.36805489,0.311611111 1.336,0.386555556 1.336,0.463472222 L1.336,70.1913889 C1.336,70.2673194 1.36805489,70.3412778 1.42214751,70.3945278 C1.47724185,70.4487639 1.5523705,70.4793333 1.62950257,70.4793333 L27.8313688,70.4793333 C27.9205214,70.4793333 28.0056672,70.4389028 28.0607616,70.3708611 C28.1168576,70.298875 28.1368919,70.2091389 28.1158559,70.1233472 L28.1158559,70.1233472 Z" id="Shape" sketch:type="MSShapeGroup"></path>
            <path d="M30.370717,56.3611806 C31.2131595,56.6954722 32.122717,56.8779028 33.0983877,56.8779028 L33.18153,56.8779028 L33.1755197,56.8779028 C34.170223,56.8650833 35.0907993,56.6658889 35.9382504,56.3148333 C36.7846998,55.9627917 37.5540172,55.4539583 38.2081372,54.8238333 C38.4986346,54.5437778 38.8191835,54.3140139 39.1557599,54.1236944 C40.4539828,53.0271389 41.9144837,52.1090694 43.5202333,51.4404861 C45.4635609,50.6299028 47.6052281,50.1713611 49.8320412,50.1476944 L49.8190189,50.1476944 C49.8941475,50.1476944 49.9622642,50.1467083 50.0233688,50.1467083 C52.2131184,50.1467083 54.3257358,50.5677778 56.2520343,51.3339861 C58.1803362,52.0992083 59.9253242,53.205625 61.4138731,54.5753333 L61.4849949,54.6423889 L61.79753,54.9421667 C62.4536535,55.5446806 63.2199657,56.0288611 64.0563979,56.3601944 C64.8978388,56.6944861 65.8083979,56.8769167 66.7840686,56.8769167 L66.867211,56.8769167 L66.8622024,56.8769167 C67.8539005,56.8640972 68.7764803,56.6649028 69.6229297,56.3138472 C70.4693791,55.9608194 71.2406998,55.4519861 71.8948199,54.8228472 C71.8988268,54.8218611 71.8998285,54.8179167 71.9018319,54.8169306 L71.9018319,45.7289306 C71.8998285,45.7318889 71.8988268,45.732875 71.8948199,45.7358333 C71.2417015,46.3659583 70.4693791,46.8738056 69.6229297,47.2268333 C68.777482,47.578875 67.8569057,47.7780694 66.8662093,47.7889167 L66.7800617,47.7889167 C65.8063945,47.7889167 64.896837,47.6045139 64.0563979,47.2721944 C63.2199657,46.9408611 62.4526518,46.4576667 61.7955266,45.8541667 L61.4849949,45.555375 L61.4148748,45.4883194 C59.9253242,44.117625 58.1793345,43.0102222 56.2500309,42.2459861 C54.3227307,41.4797778 52.2101132,41.0587083 50.0213654,41.0587083 C49.9612624,41.0587083 49.8931458,41.0596944 49.8180172,41.0606806 L49.8320412,41.0596944 C47.6052281,41.0833611 45.4645626,41.5419028 43.5202333,42.3524861 C41.913482,43.0220556 40.4509777,43.9391389 39.151753,45.0396389 C38.8161784,45.2299583 38.4986346,45.4587361 38.2081372,45.7368194 C37.5550189,46.3679306 36.7836981,46.8747917 35.9382504,47.2278194 C35.091801,47.5798611 34.1722264,47.7790556 33.1805283,47.7899028 L33.0943808,47.7899028 C32.1207136,47.7899028 31.2121578,47.6055 30.3697153,47.2731806 C29.5342847,46.9418472 28.7679726,46.4586528 28.1108473,45.8551528 L27.8053242,45.5612917 L27.7281921,45.4893056 C27.4877804,45.2664444 27.2293379,45.0633056 26.9749022,44.8552361 L29.7746964,56.0919722 C29.9710326,56.1905833 30.1683705,56.2813056 30.370717,56.3611806 L30.370717,56.3611806 Z" id="Shape" sketch:type="MSShapeGroup"></path>
            <path d="M71.8948199,59.2899306 C71.2417015,59.9210417 70.4693791,60.4269167 69.6229297,60.7799444 C68.7764803,61.1329722 67.8539005,61.3341389 66.8622024,61.3449861 L66.867211,61.3449861 L66.7840686,61.3449861 C65.8083979,61.3449861 64.8978388,61.1615694 64.0563979,60.8272778 C63.2199657,60.4959444 62.4536535,60.0137361 61.79753,59.40925 L61.4849949,59.1114444 L61.4138731,59.0434028 C59.9253242,57.6736944 58.1793345,56.5672778 56.2520343,55.8020556 C54.3257358,55.0358472 52.2131184,54.6147778 50.0233688,54.6147778 C49.9612624,54.6147778 49.8941475,54.6157639 49.8190189,54.61675 L49.8320412,54.61675 C47.6052281,54.6394306 45.4645626,55.0979722 43.5202333,55.9085556 C41.913482,56.578125 40.4529811,57.4952083 39.1557599,58.59275 C38.8191835,58.7830694 38.4986346,59.0118472 38.2081372,59.2919028 C37.5550189,59.9230139 36.7846998,60.429875 35.9382504,60.7819167 C35.0907993,61.1349444 34.170223,61.3361111 33.1755197,61.3469583 L33.18153,61.3469583 L33.0983877,61.3469583 C32.122717,61.3469583 31.2131595,61.1635417 30.370717,60.82925 C30.1683705,60.749375 29.9710326,60.6596389 29.7746964,60.5620139 L32.2659623,70.5611806 C32.5424357,70.5749861 32.8189091,70.5818889 33.0973859,70.5818889 C33.1574889,70.5818889 33.2165901,70.5818889 33.2806998,70.5799167 L33.2857084,70.5799167 C35.5115197,70.5552639 37.6491801,70.0967222 39.5935094,69.2861389 C41.199259,68.6165694 42.6607616,67.7004722 43.9569811,66.6029306 C44.2935575,66.4135972 44.6141063,66.1828472 44.9056055,65.9027917 C45.5597256,65.2726667 46.3290429,64.7648194 47.1744906,64.4127778 C48.0219417,64.05975 48.942518,63.8605556 49.9322127,63.8506944 L49.9472384,63.8487222 L50.0233688,63.8487222 C50.9950326,63.8487222 51.9045901,64.0341111 52.7450292,64.3664306 C53.5804597,64.6977639 54.3447684,65.1809583 54.9988885,65.7815 L55.3114237,66.0822639 L55.3815437,66.1493194 C56.8730978,67.5219861 58.6200892,68.6284028 60.5493928,69.3946111 C62.4786964,70.1598333 64.5933173,70.5809028 66.7830669,70.5809028 C66.8441715,70.5809028 66.902271,70.5809028 66.9663808,70.5789306 L66.9713894,70.5789306 C68.682319,70.5601944 70.3411595,70.2821111 71.9008302,69.7880694 L71.9008302,59.2859861 C71.8988268,59.2859861 71.897825,59.2879583 71.8948199,59.2899306 L71.8948199,59.2899306 Z" id="Shape" sketch:type="MSShapeGroup"></path>
            <path d="M11.6353999,15.5809908 L30.3434527,15.5809907 L30.3434527,10.1225958 L44.1513189,19.2437215 L30.3434527,27.6844405 L30.343453,22.6191794 L11.6353999,22.6191797 L11.6353999,15.5809908 Z" id="arrow-copy" sketch:type="MSShapeGroup"></path>
        </g>
    </g>
</svg>