<?xml version="1.0" encoding="UTF-8" standalone="no"?>
<svg width="80px" height="80px" viewBox="0 0 80 80" version="1.1" xmlns="http://www.w3.org/2000/svg" xmlns:xlink="http://www.w3.org/1999/xlink" xmlns:sketch="http://www.bohemiancoding.com/sketch/ns">
    <!-- Generator: Sketch 3.3.3 (12081) - http://www.bohemiancoding.com/sketch -->
    <title>icon-channel-static-ii</title>
    <desc>Created with Sketch.</desc>
    <defs></defs>
    <g id="icon-channel-static-ii" stroke="none" stroke-width="1" fill="none" fill-rule="evenodd" sketch:type="MSPage">
        <g sketch:type="MSLayerGroup" transform="translate(0.000000, 33.000000)">
            <rect id="Rectangle-1" fill="#77ACDE" sketch:type="MSShapeGroup" x="0" y="0" width="80" height="16"></rect>
            <path d="M11,14 C14.3137085,14 17,11.3137085 17,8 C17,4.6862915 14.3137085,2 11,2 C7.6862915,2 5,4.6862915 5,8 C5,11.3137085 7.6862915,14 11,14 Z" id="Oval-1" fill="#FFFFFF" sketch:type="MSShapeGroup"></path>
            <path d="M69,14 C72.3137085,14 75,11.3137085 75,8 C75,4.6862915 72.3137085,2 69,2 C65.6862915,2 63,4.6862915 63,8 C63,11.3137085 65.6862915,14 69,14 Z" id="Oval-1-Copy" fill="#FFFFFF" sketch:type="MSShapeGroup"></path>
            <path d="M35,13 L35,2 L46,7.5 L35,13 Z" id="Triangle-1" fill="#FFFFFF" sketch:type="MSShapeGroup"></path>
        </g>
    </g>
</svg>