<?xml version="1.0" encoding="UTF-8" standalone="no"?>
<svg width="80px" height="80px" viewBox="0 0 80 80" version="1.1" xmlns="http://www.w3.org/2000/svg" xmlns:xlink="http://www.w3.org/1999/xlink" xmlns:sketch="http://www.bohemiancoding.com/sketch/ns">
    <!-- Generator: Sketch 3.3.3 (12081) - http://www.bohemiancoding.com/sketch -->
    <title>icon-wind-noshield</title>
    <desc>Created with Sketch.</desc>
    <defs></defs>
    <g id="icon-wind-noshield" stroke="none" stroke-width="1" fill="none" fill-rule="evenodd" sketch:type="MSPage">
        <g id="icon-wind" sketch:type="MSLayerGroup" fill="#000000">
            <g id="Shape-+-Path-6-+-Path-6-Copy" sketch:type="MSShapeGroup">
                <path d="M8.71798605,35.7867845 C8.71678318,35.7155324 8.71612891,35.6440702 8.71602322,35.5723979 C8.71602322,32.4615544 9.78064162,29.7551205 11.9098784,27.4530963 C14.0391152,25.1510721 16.6659714,23.8134094 19.7904469,23.4401082 L21.7570004,23.4401082 C22.2211262,23.4401082 22.4531891,23.229528 22.4531891,22.8083677 L22.7331,20.6331702 C23.1110993,16.5938595 24.8168812,13.2126119 27.8504455,10.4894274 C30.8840098,7.76624282 34.4582567,6.40465055 38.5731863,6.40465055 C42.6402678,6.40465055 46.1977679,7.76624282 49.2456866,10.4894274 C52.2936053,13.2126119 54.028096,16.5938595 54.4491585,20.6331702 L54.7290694,22.8083677 C54.7290694,23.229528 54.9515627,23.4401082 55.3965493,23.4401082 L61.4253995,23.4401082 C64.7412672,23.4401082 67.6217178,24.6437653 70.0667515,27.0510796 C72.5117852,29.4583939 73.7319097,32.2988333 73.7271249,35.5723979 C73.7271249,38.817247 72.6003041,41.6313639 70.3466624,44.0147486 C68.0930208,46.3981333 63.6937925,47.6735792 60.4927601,47.8410861 C59.9999255,47.8410861 42.7814239,47.8410882 42.7814239,47.8410882 L42.7814239,54.1441351 C42.7814239,54.1441351 59.9999255,54.1441337 60.4927601,54.1441337 C65.4689539,53.9814126 71.3562556,52.1005488 74.8108825,48.5015421 C78.2655094,44.9025355 79.9952152,40.5928207 80,35.5723979 C80,32.2031151 79.1698369,29.1066293 77.5095107,26.2829406 C75.8491845,23.4592519 73.5955428,21.2314093 70.7485858,19.5994129 C67.9016287,17.9674166 64.7939,17.1562043 61.4253995,17.1657761 L60.2339839,17.1657761 C59.0186442,12.164497 56.3965729,8.06296944 52.3677698,4.86119358 C48.3389667,1.65941772 43.7407722,0.0585297875 38.5731863,0.0585297875 C33.2955499,0.0585297875 28.6064442,1.69531207 24.5058691,4.96887662 C20.4052939,8.24244118 17.7712606,12.437294 16.6037689,17.5534351 C12.4936242,18.5106177 9.08923776,20.6786364 6.39060956,24.057491 C3.69198136,27.4363456 2.34266726,31.2746479 2.34266726,35.5723979 C2.34266726,35.6440056 2.34268111,35.7154677 2.34271863,35.7867844 L8.71798034,35.7867843 Z" id="Shape"></path>
                <path d="M-5.32907052e-15,38.0850737 L39.4435675,38.0850736 C39.4435675,38.0850736 43.299919,38.2093394 43.299919,34.9978141 C43.299919,31.7862888 35.935403,33.2637872 35.935403,33.2637872 C35.935403,33.2637872 33.569558,29.2113157 36.5665869,27.4106001 C39.5636157,25.6098845 49.3726785,27.7108733 49.3726785,34.1556689 C49.3726785,43.9095539 39.4435617,43.7345626 39.4435617,43.7345626 C39.4435617,43.7345626 23.624827,44.019407 0,44.2037792 L0,38.0850737 Z" id="Path-6"></path>
                <path d="M0,52.4701229 L31.2422226,52.470123 C31.2422226,52.470123 35.0985741,52.3458572 35.0985741,55.5573825 C35.0985741,58.7689079 27.7340581,57.2914094 27.7340581,57.2914094 C27.7340581,57.2914094 25.3682132,61.3438809 28.365242,63.1445965 C31.3622708,64.9453121 41.1713336,62.8443234 41.1713336,56.3995278 C41.1713336,46.6456428 31.2422168,46.8206341 31.2422168,46.8206341 C31.2422168,46.8206341 19.0125502,46.6004172 4.20108393e-12,46.4219115 L0,52.4701229 Z" id="Path-6-Copy"></path>
            </g>
        </g>
    </g>
</svg>