<?xml version="1.0" encoding="UTF-8" standalone="no"?>
<svg width="80px" height="80px" viewBox="0 0 80 80" version="1.1" xmlns="http://www.w3.org/2000/svg" xmlns:xlink="http://www.w3.org/1999/xlink" xmlns:sketch="http://www.bohemiancoding.com/sketch/ns">
    <!-- Generator: Sketch 3.3.3 (12081) - http://www.bohemiancoding.com/sketch -->
    <title>icon-pipe-symbol</title>
    <desc>Created with Sketch.</desc>
    <defs></defs>
    <g id="icon-pipe-symbol" stroke="none" stroke-width="1" fill="none" fill-rule="evenodd" sketch:type="MSPage">
        <path d="M13.65,25 C10.893,25 8.417,26.672 6.729,29.209 C5.041,31.773 4,35.23 4,39.021 C4,42.839 5.041,46.269 6.729,48.806 C8.417,51.341 10.893,53.015 13.65,53.015 L19.39,53.015 C20.768,53.015 22.091,52.568 23.273,51.843 L53.915,51.843 C55.067,52.568 56.362,53.015 57.741,53.015 L65.845,53.015 C68.603,53.015 71.05,51.341 72.767,48.806 C74.455,46.269 75.468,42.812 75.468,38.993 C75.468,35.202 74.454,31.773 72.767,29.209 C71.05,26.672 68.603,25 65.845,25 L57.741,25 C56.362,25 55.067,25.446 53.886,26.199 L23.273,26.199 C22.091,25.447 20.769,25 19.39,25 L13.65,25 L13.65,25 L13.65,25 Z M13.65,26.589 L19.39,26.589 C21.5,26.589 23.498,27.871 24.989,30.101 C26.48,32.331 27.437,35.509 27.437,39.021 C27.437,42.562 26.48,45.71 24.989,47.941 C23.498,50.199 21.5,51.453 19.39,51.453 L13.65,51.453 C11.512,51.453 9.542,50.199 8.051,47.941 C6.56,45.711 5.575,42.562 5.575,39.021 C5.575,35.509 6.56,32.331 8.051,30.101 C9.542,27.871 11.512,26.589 13.65,26.589 L13.65,26.589 L13.65,26.589 Z M59.796,26.589 L65.845,26.589 C67.954,26.589 69.925,27.843 71.415,30.073 C72.907,32.303 73.892,35.481 73.892,38.993 C73.892,42.533 72.908,45.683 71.415,47.913 C69.925,50.171 67.954,51.452 65.845,51.452 L59.796,51.452 C61.456,50.839 62.919,49.612 64.017,47.968 C65.591,45.655 66.521,42.505 66.521,39.021 C66.521,35.564 65.591,32.415 64.017,30.073 C62.919,28.428 61.456,27.174 59.796,26.589 L59.796,26.589 L59.796,26.589 Z M25.13,27.759 L57.657,27.759 C59.569,27.759 61.343,28.929 62.692,30.937 C64.044,32.972 64.917,35.843 64.917,39.02 C64.917,42.225 64.044,45.069 62.692,47.077 C61.342,49.112 59.569,50.255 57.657,50.255 L25.13,50.255 C25.552,49.808 25.946,49.335 26.312,48.806 C28,46.269 29.041,42.839 29.041,39.021 C29.041,35.23 28,31.773 26.312,29.209 C25.946,28.679 25.552,28.205 25.13,27.759 L25.13,27.759 L25.13,27.759 Z M13.847,28.177 C11.849,28.177 10.161,29.543 9.007,31.494 C7.854,33.473 7.206,36.121 7.206,39.02 C7.206,41.918 7.853,44.567 9.007,46.518 C10.161,48.498 11.849,49.864 13.847,49.864 C15.845,49.864 17.533,48.499 18.686,46.518 C19.84,44.567 20.487,41.918 20.487,39.02 C20.487,36.121 19.84,33.473 18.686,31.494 C17.533,29.543 15.845,28.177 13.847,28.177 L13.847,28.177 L13.847,28.177 Z M13.847,29.766 C15.113,29.766 16.351,30.63 17.336,32.303 C18.293,33.948 18.912,36.373 18.912,39.021 C18.912,41.697 18.293,44.066 17.336,45.74 C16.351,47.412 15.113,48.304 13.847,48.304 C12.609,48.304 11.343,47.411 10.386,45.74 C9.401,44.066 8.782,41.697 8.782,39.021 C8.782,36.373 9.401,33.948 10.386,32.303 C11.343,30.631 12.609,29.766 13.847,29.766 L13.847,29.766 L13.847,29.766 Z" id="Shape" fill="#000000" sketch:type="MSShapeGroup"></path>
    </g>
</svg>