<?xml version="1.0" encoding="UTF-8" standalone="no"?>
<svg width="80px" height="80px" viewBox="0 0 80 80" version="1.1" xmlns="http://www.w3.org/2000/svg" xmlns:xlink="http://www.w3.org/1999/xlink" xmlns:sketch="http://www.bohemiancoding.com/sketch/ns">
    <!-- Generator: Sketch 3.3.3 (12081) - http://www.bohemiancoding.com/sketch -->
    <title>icon-connection-node-ii</title>
    <desc>Created with Sketch.</desc>
    <defs>
        <filter x="-50%" y="-50%" width="200%" height="200%" filterUnits="objectBoundingBox" id="filter-1">
            <feOffset dx="0" dy="2" in="SourceAlpha" result="shadowOffsetOuter1"></feOffset>
            <feGaussianBlur stdDeviation="2" in="shadowOffsetOuter1" result="shadowBlurOuter1"></feGaussianBlur>
            <feColorMatrix values="0 0 0 0 0   0 0 0 0 0   0 0 0 0 0  0 0 0 0.35 0" in="shadowBlurOuter1" type="matrix" result="shadowMatrixOuter1"></feColorMatrix>
            <feMerge>
                <feMergeNode in="shadowMatrixOuter1"></feMergeNode>
                <feMergeNode in="SourceGraphic"></feMergeNode>
            </feMerge>
        </filter>
    </defs>
    <g id="icon-connection-node-ii" stroke="none" stroke-width="1" fill="none" fill-rule="evenodd" sketch:type="MSPage">
        <g id="Oval-1-+-connection-node-ii" sketch:type="MSLayerGroup" transform="translate(4.000000, 3.000000)">
            <circle id="Oval-1" fill="#FFFFFF" filter="url(#filter-1)" sketch:type="MSShapeGroup" cx="36" cy="36" r="36"></circle>
            <g id="connection-node-ii" transform="translate(13.000000, 15.000000)" fill="#000000" sketch:type="MSShapeGroup">
                <path d="M34.9288605,27.2772024 C33.0911163,27.2772024 31.423814,28.0010476 30.1926279,29.176869 L20.4452093,23.5125238 C20.7724186,22.5046071 20.9496977,21.4298214 20.9496977,20.3130595 C20.9496977,19.3236905 20.811,18.3670238 20.5516744,17.460631 L30.526186,12.1228214 C31.717814,13.1209762 33.2527674,13.7227976 34.9288605,13.7227976 C38.7166744,13.7227976 41.7875581,10.6536548 41.7875581,6.8679881 C41.7875581,3.08232143 38.7166744,0.0131785714 34.9288605,0.0131785714 C31.1410465,0.0131785714 28.0701628,3.08232143 28.0701628,6.8679881 C28.0701628,7.38780952 28.1297442,7.8929881 28.2396279,8.37961905 L18.4809767,13.6022381 C16.5792558,11.3682262 13.7462093,9.95079762 10.5810698,9.95079762 C4.8544186,9.95079762 0.21244186,14.5901429 0.21244186,20.3135476 C0.21244186,26.0369524 4.8544186,30.6762976 10.5810698,30.6762976 C13.6153256,30.6762976 16.3448372,29.3735714 18.241186,27.2972143 L28.1551395,33.0582024 C28.0999535,33.4081667 28.0706512,33.7669167 28.0706512,34.1325 C28.0706512,37.9181667 31.1415349,40.9873095 34.9293488,40.9873095 C38.7171628,40.9873095 41.7880465,37.9181667 41.7880465,34.1325 C41.7880465,30.3468333 38.7171628,27.2772024 34.9288605,27.2772024 L34.9288605,27.2772024 Z" id="Shape"></path>
            </g>
        </g>
    </g>
</svg>