<?xml version="1.0" encoding="UTF-8" standalone="no"?>
<svg width="277px" height="222px" viewBox="0 0 277 222" version="1.1" xmlns="http://www.w3.org/2000/svg" xmlns:xlink="http://www.w3.org/1999/xlink" xmlns:sketch="http://www.bohemiancoding.com/sketch/ns">
    <!-- Generator: Sketch 3.1.1 (8761) - http://www.bohemiancoding.com/sketch -->
    <title>icon-clouds 2</title>
    <desc>Created with Sketch.</desc>
    <defs></defs>
    <g id="Page-1" stroke="none" stroke-width="1" fill="none" fill-rule="evenodd" sketch:type="MSPage">
        <g id="Group" sketch:type="MSLayerGroup" transform="translate(10.000000, 6.000000)" fill="#312E2E">
            <path d="M256.062743,85.7714082 C256.062743,106.886733 244.383778,120.77637 244.383778,120.77637 C244.383778,120.77637 229.896114,141.357535 206.065953,142.174743 C182.235793,142.99195 26.4417462,142.998725 26.4417462,142.998725 C26.4837236,142.88691 0.427731924,137.695074 0.427730769,114.895755 C0.427729615,92.0964359 18.7509275,84.898783 22.6173252,84.8987835 C22.2075426,84.9969356 27.6056083,62.6106274 55.0302308,59.1090708 C55.1150358,59.2202101 57.1133097,4.79499225 114.385749,0.142763519 C114.162577,0.247654006 152.124451,-3.33781658 173.130224,34.9592637 C173.159412,35.015955 210.326662,14.7236454 242.250037,47.0824772 C242.427123,46.7520135 256.062743,64.656083 256.062743,85.7714082 Z" id="Path-1" sketch:type="MSShapeGroup"></path>
        </g>
        <g id="Oval-1-+-Path-2" sketch:type="MSLayerGroup" transform="translate(81.000000, 164.000000)" fill="#312E2E">
            <path d="M33.9682322,35.0478759 C33.426974,43.9486779 26.0369493,51 17,51 C7.61115925,51 0,43.3888407 0,34 C0,27.7475956 3.37536692,22.2835503 8.40330888,19.3306561 L8.3430197,19.2935905 C8.3430197,19.2935905 32.1144317,5.49532903 36.5217477,-0.281606677 C33.8392248,7.56297459 33.8544897,26.1247546 33.9513518,32.7041907 C33.9835893,33.1319048 34,33.5640359 34,34 C34,34.2143007 33.9960347,34.4276752 33.9881735,34.6400543 C33.9949057,34.9185699 33.9993282,35.0669936 33.9993282,35.0669936 L33.9682322,35.0478759 Z" id="Oval-1" sketch:type="MSShapeGroup"></path>
        </g>
        <g id="Oval-1-+-Path-2" sketch:type="MSLayerGroup" transform="translate(139.000000, 164.000000)" fill="#312E2E">
            <path d="M33.9682322,35.0478759 C33.426974,43.9486779 26.0369493,51 17,51 C7.61115925,51 0,43.3888407 0,34 C0,27.7475956 3.37536692,22.2835503 8.40330888,19.3306561 L8.3430197,19.2935905 C8.3430197,19.2935905 32.1144317,5.49532903 36.5217477,-0.281606677 C33.8392248,7.56297459 33.8544897,26.1247546 33.9513518,32.7041907 C33.9835893,33.1319048 34,33.5640359 34,34 C34,34.2143007 33.9960347,34.4276752 33.9881735,34.6400543 C33.9949057,34.9185699 33.9993282,35.0669936 33.9993282,35.0669936 L33.9682322,35.0478759 Z" id="Oval-1" sketch:type="MSShapeGroup"></path>
        </g>
    </g>
</svg>