<?xml version="1.0" encoding="UTF-8" standalone="no"?>
<svg width="80px" height="80px" viewBox="0 0 80 80" version="1.1" xmlns="http://www.w3.org/2000/svg" xmlns:xlink="http://www.w3.org/1999/xlink" xmlns:sketch="http://www.bohemiancoding.com/sketch/ns">
    <!-- Generator: Sketch 3.3.3 (12081) - http://www.bohemiancoding.com/sketch -->
    <title>icon-thermometer</title>
    <desc>Created with Sketch.</desc>
    <defs></defs>
    <g id="icon-thermometer" stroke="none" stroke-width="1" fill="none" fill-rule="evenodd" sketch:type="MSPage">
        <g sketch:type="MSLayerGroup" transform="translate(21.000000, 0.000000)" id="Shape" fill="#000000">
            <path d="M0.233918129,61.4132334 C0.233918129,58.3599932 0.945143503,55.5007235 2.36759425,52.8354244 C3.790045,50.1701253 5.78003923,47.9574241 8.33757694,46.1973209 L8.33757694,10.3666486 C8.33757694,7.49301076 9.32179791,5.04682652 11.2902399,3.02809591 C13.2586818,1.0093653 15.6761297,0 18.5425834,0 C21.4593259,0 23.9162863,1.0093653 25.9134646,3.02809591 C27.9106429,5.04682652 28.9092321,7.49301076 28.9092321,10.3666486 L28.9092321,46.1973209 C31.4380334,47.9861605 33.4136594,50.2060457 34.8361102,52.8569767 C36.2585609,55.5079076 36.9661943,58.3599932 36.9590102,61.4132334 C36.9590102,66.4995725 35.1629865,70.8387657 31.5709392,74.430813 C27.9788918,78.0228604 23.6361066,79.8224761 18.5425834,79.8296602 C13.4490603,79.8368443 9.12782735,78.0372286 5.57888458,74.430813 C2.0299418,70.8243975 0.248286318,66.4852043 0.233918129,61.4132334 L0.233918129,61.4132334 Z M6.54873736,61.4132334 C6.54873736,64.7753898 7.72333684,67.6490276 10.0725358,70.0341471 C12.4217348,72.4192665 15.245084,73.6118262 18.5425834,73.6118262 C21.9478443,73.6118262 24.8609947,72.4120824 27.2820346,70.0125948 C29.7030745,67.6131072 30.9135945,64.7466534 30.9135945,61.4132334 C30.9135945,59.1646118 30.3352749,57.0920005 29.1786356,55.1953995 C28.0219964,53.2987985 26.4235353,51.8260591 24.3832524,50.7771813 L23.3918474,50.1952696 C23.0039062,50.0228513 22.8099357,49.692383 22.8099357,49.2038645 L22.8099357,10.3666486 C22.8099357,9.24592986 22.3968502,8.29044527 21.5706794,7.50019485 C20.7445085,6.70994444 19.7351432,6.31481923 18.5425834,6.31481923 C17.4218647,6.31481923 16.4484198,6.70994444 15.622249,7.50019485 C14.7960781,8.29044527 14.3865847,9.24592986 14.3937688,10.3666486 L14.3937688,49.2038645 C14.3937688,49.7283034 14.2177584,50.0587718 13.8657378,50.1952696 L12.8635566,50.7771813 C10.8663783,51.8332432 9.31461381,53.2987985 8.20826323,55.1738472 C7.10191265,57.0488959 6.54873736,59.1286913 6.54873736,61.4132334 L6.54873736,61.4132334 Z M9.70614698,61.1977106 C9.70614698,63.7265119 10.5646463,65.8745562 12.2816449,67.6418435 C13.9986436,69.4091308 16.0856231,70.2963665 18.5425834,70.3035506 C20.9995438,70.3107347 23.1224438,69.423499 24.9112834,67.6418435 C26.700123,65.8601881 27.5945427,63.7121437 27.5945427,61.1977106 C27.5945427,58.949089 26.8222526,56.9662788 25.2776722,55.2492802 C23.7330919,53.5322816 21.8760034,52.5336924 19.7064068,52.2535127 L19.7064068,26.2075774 C19.7064068,25.9992387 19.5842772,25.7801238 19.340018,25.5502328 C19.0957587,25.3203417 18.8299472,25.2053962 18.5425834,25.2053962 C17.8816467,25.2053962 17.5511784,25.5394566 17.5511784,26.2075774 L17.5511784,52.2535127 C15.3743977,52.5336924 13.5209013,53.5322816 11.9906891,55.2492802 C10.4604769,56.9662788 9.69896288,58.949089 9.70614698,61.1977106 L9.70614698,61.1977106 Z" sketch:type="MSShapeGroup"></path>
        </g>
    </g>
</svg>