<?xml version="1.0" encoding="UTF-8" standalone="no"?>
<svg width="80px" height="80px" viewBox="0 0 80 80" version="1.1" xmlns="http://www.w3.org/2000/svg" xmlns:xlink="http://www.w3.org/1999/xlink" xmlns:sketch="http://www.bohemiancoding.com/sketch/ns">
    <!-- Generator: Sketch 3.3.3 (12081) - http://www.bohemiancoding.com/sketch -->
    <title>icon-grid</title>
    <desc>Created with Sketch.</desc>
    <defs></defs>
    <g id="icon-grid" stroke="none" stroke-width="1" fill="none" fill-rule="evenodd" sketch:type="MSPage">
        <path d="M7.82038409,40.134 L40.729,59.134 L73.6376159,40.134 L40.729,21.134 L7.82038409,40.134 L7.82038409,40.134 Z M49.7589637,28.6869964 C49.053234,29.0962521 48.352907,29.4947024 47.6458266,29.864113 C46.7908469,29.3812453 45.9324904,28.8956763 45.0916928,28.421588 C44.964729,28.350002 44.8337132,28.2757147 44.706074,28.2041287 C45.4212585,27.802977 46.1290142,27.4011501 46.8306919,26.9966217 L49.7589637,28.6869964 L49.7589637,28.6869964 Z M60.0524876,34.6306588 C59.3467579,35.0399146 58.6477815,35.4376895 57.9407011,35.8071002 C56.9641603,35.231711 55.9882948,34.6617245 55.0056759,34.0870106 C55.7363932,33.7304314 56.4448243,33.3353578 57.1269171,32.9416349 L60.0524876,34.6306588 L60.0524876,34.6306588 Z M66.909209,38.588148 C66.1906478,39.0001051 65.4714113,39.4120621 64.7501488,39.8219932 C63.7769846,39.2499807 62.8153013,38.6833709 61.8536179,38.1154104 C62.5721791,37.7122327 63.2833115,37.3083798 63.9876906,36.9025007 L66.909209,38.588148 L66.909209,38.588148 Z M17.4709848,36.9018254 C18.1753638,37.3077044 18.8864963,37.7122327 19.6050574,38.1147351 C18.6433741,38.6826955 17.682366,39.2493053 16.7085266,39.8213178 C15.987264,39.4120621 15.2680275,39.0001051 14.5494663,38.5874727 L17.4709848,36.9018254 L17.4709848,36.9018254 Z M34.6273081,26.9959464 C35.3283104,27.4004747 36.0360662,27.8023017 36.7512507,28.2041287 C36.6256375,28.274364 36.4966477,28.347976 36.3710345,28.4188866 C35.5282109,28.8936502 34.6685038,29.3798946 33.8121734,29.864113 C33.105093,29.4953777 32.404766,29.0969274 31.6990363,28.6876717 L34.6273081,26.9959464 L34.6273081,26.9959464 Z M49.6637409,34.5482674 C49.8420305,34.6563217 50.0162681,34.7718048 50.1938823,34.8832358 C49.8244717,34.8872878 49.451009,34.8643263 49.0741695,34.8102991 C48.6081853,34.7427652 48.1374737,34.6434903 47.6809443,34.5469168 C47.6046309,34.4834348 47.5316942,34.4159009 47.4547056,34.3537697 C46.9434736,33.9451893 46.4619566,33.6190004 45.9979984,33.3502153 C46.3106805,33.3853329 46.6260641,33.4116711 46.9468503,33.4116711 C47.1305426,33.4116711 47.318287,33.4022164 47.5067067,33.3866836 C48.2380993,33.7473149 48.9634139,34.1255049 49.6637409,34.5482674 L49.6637409,34.5482674 Z M51.0981619,42.7313555 C50.9191969,42.5456372 50.7409073,42.3605942 50.5680204,42.1647457 C49.6536108,41.128775 48.8215926,40.0009581 48.0179387,38.8981288 C48.8796718,38.66176 49.7414049,38.5557317 50.6909322,38.4470021 C50.778051,38.436872 50.8678711,38.4267419 50.9549899,38.4166118 C51.8153724,39.3215666 52.7041191,40.2548858 53.6495943,41.1118915 C53.7637267,41.2152185 53.8819111,41.311792 53.9967188,41.4130929 C53.0330094,41.8297774 52.0605206,42.2626699 51.0981619,42.7313555 L51.0981619,42.7313555 Z M47.6390732,44.6830865 C47.4702384,44.5047969 47.3000528,44.3312347 47.1366207,44.144841 C46.1938468,43.076454 45.3388671,41.9114934 44.5115762,40.7775985 C44.5460186,40.7499096 44.5777595,40.7201946 44.6115265,40.6925057 C45.667082,39.8483314 46.5956738,39.364113 47.5040053,39.0541322 C48.346829,40.2109887 49.2186922,41.4016121 50.187129,42.4990387 C50.3296256,42.6604449 50.4788756,42.8110456 50.6233982,42.9656983 C49.9689943,43.295264 49.3199931,43.6383364 48.6892261,44.0199032 C48.3360235,44.2346611 47.986873,44.4575231 47.6390732,44.6830865 L47.6390732,44.6830865 Z M32.7687739,44.0205785 C32.1380069,43.6403624 31.4890057,43.29729 30.8352771,42.9677243 C31.4437579,42.3112944 32.0603429,41.5792264 32.7140714,40.724922 C33.1354833,40.173845 33.5454143,39.614664 33.9560207,39.0554829 C34.8636769,39.3654637 35.790918,39.8490068 36.8451228,40.6918304 C36.8795652,40.7195193 36.9119814,40.7499096 36.9457484,40.7775985 C36.1191329,41.9121688 35.2648285,43.076454 34.3220547,44.1434903 C34.1572718,44.329884 33.9870863,44.5047969 33.8182514,44.6830865 C33.471127,44.4575231 33.1219765,44.2346611 32.7687739,44.0205785 L32.7687739,44.0205785 Z M38.6874489,32.1717479 C38.7347226,32.1805273 38.7799704,32.1866054 38.8272441,32.1953848 C38.2856219,32.2818283 37.7575064,32.3925839 37.2246636,32.5620941 C36.7634068,32.6600183 36.2879678,32.7606439 35.8172562,32.8288532 C35.5336136,32.8700489 35.2526724,32.8876077 34.9730819,32.8957118 C35.7578263,32.5323792 36.5452721,32.18593 37.3232632,31.8489357 C37.7649352,31.9731981 38.2160619,32.0859798 38.6874489,32.1717479 L38.6874489,32.1717479 Z M46.5693355,34.3294575 C45.846047,34.203169 45.1024983,34.1234789 44.3177538,34.207221 C44.298169,34.209247 44.2806102,34.2146497 44.2596746,34.2166758 C43.679558,33.6223771 43.0778306,33.103041 42.3471133,32.7383577 C42.7928373,32.7815794 43.2385614,32.8545161 43.6883375,32.9423102 C44.6101758,33.1888091 45.5367415,33.5967142 46.5693355,34.3294575 L46.5693355,34.3294575 Z M47.692425,38.4544308 C46.7678853,37.1847926 45.8089033,35.8820628 44.7168794,34.6988681 C45.6495232,34.6569971 46.5328672,34.8224552 47.4533549,35.0162777 C48.5460541,35.9273106 49.5496085,36.9436965 50.5160193,37.9567056 C49.5178676,38.0715133 48.609536,38.1836197 47.692425,38.4544308 L47.692425,38.4544308 Z M44.2954676,40.2974321 C44.266428,40.3203937 44.2400898,40.3453812 44.2110502,40.3683428 C43.2979913,39.1155881 42.3511654,37.8344692 41.2733236,36.6674826 C41.208491,36.5972473 41.1450091,36.5310641 41.0795012,36.4628548 C41.9263768,35.609901 42.7928373,34.9703546 44.077333,34.760324 C44.1617504,34.8494688 44.2468432,34.9379383 44.3326113,35.0304598 C45.372634,36.1555753 46.2951477,37.3995506 47.1852451,38.6192136 C46.2823163,38.9460779 45.3510232,39.4532578 44.2954676,40.2974321 L44.2954676,40.2974321 Z M40.729,43.6977663 C39.7531345,42.6719256 38.7401253,41.6373056 37.6325686,40.6972331 C38.5449522,39.4465044 39.4884014,38.1660609 40.5554378,37.0112304 C40.6141923,36.9477485 40.6715961,36.888994 40.7296753,36.8268627 C40.7870792,36.8883186 40.844483,36.9477485 40.9032376,37.0105551 C41.9702739,38.1653855 42.9150738,39.4465044 43.8261067,40.6965578 C42.7178747,41.6379809 41.7048655,42.6732763 40.729,43.6977663 L40.729,43.6977663 Z M37.1611817,40.2967568 C36.1083275,39.4552839 35.1783851,38.9481039 34.2774823,38.6212396 C34.911626,37.7568051 35.5646792,36.8754872 36.2508241,36.0380663 C36.602676,35.6092257 36.9774894,35.1736318 37.3779657,34.760324 C38.6631366,34.9710299 39.5302725,35.6105764 40.3751221,36.4628548 C40.3102895,36.5310641 40.2468076,36.5979227 40.1812997,36.6674826 C39.103458,37.8337938 38.1579827,39.1155881 37.2435731,40.3676674 C37.2165595,40.3453812 37.1902213,40.3197183 37.1611817,40.2967568 L37.1611817,40.2967568 Z M30.9433314,37.9560303 C31.9090668,36.9430211 32.9119459,35.9266352 34.0039698,35.0156023 C34.9224314,34.8204292 35.8051001,34.6556464 36.7377439,34.6975175 C36.4304644,35.0331612 36.1373671,35.3769089 35.8598026,35.7159293 C35.1290853,36.6067021 34.4395637,37.5420472 33.769627,38.4551061 C32.8518407,38.1836197 31.9428338,38.070838 30.9433314,37.9560303 L30.9433314,37.9560303 Z M40.729,36.0995221 C39.9131899,35.2803354 39.0487555,34.609048 37.824365,34.3227041 C38.6563832,33.5514664 39.6018585,32.9342062 40.7100905,32.7619946 C41.9668972,32.9416349 42.8272797,33.5258035 43.6437651,34.3193274 C42.4153226,34.6049959 41.5475114,35.277634 40.729,36.0995221 L40.729,36.0995221 Z M37.3934985,33.0436111 C37.9911739,32.9166473 38.5726411,32.802515 39.1622125,32.7430851 C38.4355472,33.1097944 37.7905981,33.6338578 37.2023774,34.2180264 C37.1807665,34.2153251 37.1611817,34.2099224 37.1388955,34.207221 C36.3541511,34.1241543 35.609927,34.2045197 34.8873138,34.3301328 C35.7794372,33.6959891 36.5945719,33.2961881 37.3934985,33.0436111 L37.3934985,33.0436111 Z M35.4039485,33.3806055 C34.9561984,33.6439879 34.4922402,33.9607221 34.0012684,34.3530943 C33.9236044,34.4152256 33.8513431,34.4827595 33.7743544,34.5462414 C33.3198509,34.642815 32.85049,34.7414145 32.3845058,34.8089485 C32.0063157,34.863651 31.6342037,34.8866125 31.264793,34.8825605 C31.4417319,34.7711295 31.6166448,34.6563217 31.7949345,34.5482674 C32.5047162,34.1194269 33.2408362,33.7358341 33.9843849,33.3698001 C34.4483431,33.4143725 34.9210808,33.4197752 35.4039485,33.3806055 L35.4039485,33.3806055 Z M32.4574425,35.3100503 C32.6343814,35.2843874 32.8092943,35.2512958 32.9835319,35.2195548 C32.0414334,36.0698072 31.1668688,36.9842168 30.313915,37.8803923 C29.7371752,37.8115076 29.1442271,37.736545 28.4817191,37.6163345 C28.173089,37.5602814 27.8732383,37.4900461 27.5754136,37.4157587 C28.539123,36.7174577 29.5210665,36.0130787 30.5300237,35.3485447 C31.1580894,35.4093252 31.7989865,35.4059485 32.4574425,35.3100503 L32.4574425,35.3100503 Z M28.391899,38.1154104 C28.9206898,38.2113086 29.4062588,38.2801932 29.8729184,38.3389478 C29.0996547,39.1507058 28.3061309,39.9752952 27.4680346,40.7357274 C27.2964984,40.8903802 27.1209101,41.0369288 26.9473479,41.1868542 C26.187591,40.8586392 25.4291848,40.5283982 24.677532,40.1805984 C24.4769562,40.0880769 24.2804324,39.98475 24.0812073,39.8895271 C24.2081711,39.8044343 24.3385116,39.7233936 24.4641248,39.6369502 C25.3373387,39.0385994 26.2058252,38.4085077 27.0479735,37.7966502 C27.4862688,37.9202373 27.9292915,38.030993 28.391899,38.1154104 L28.391899,38.1154104 Z M27.8097564,41.1105408 C28.7545563,40.2521844 29.643303,39.320216 30.5036854,38.4152611 C30.5908042,38.4253912 30.6792737,38.4355213 30.7657171,38.4456514 C31.7159197,38.5550564 32.5790036,38.6610847 33.4420874,38.8981288 C33.0679493,39.4066594 32.6965126,39.9158654 32.3122445,40.4176426 C31.632853,41.3050386 30.9946572,42.0614188 30.3625395,42.7327062 C29.3981548,42.2633453 28.4249906,41.8304527 27.4619566,41.4124176 C27.5767643,41.3111167 27.6949487,41.2145431 27.8097564,41.1105408 L27.8097564,41.1105408 Z M34.7029461,44.4804847 C35.6504474,43.4053443 36.5061024,42.2424098 37.3327179,41.1078395 C38.4159624,42.0310285 39.4154648,43.0534924 40.3784988,44.0658263 C39.5410779,44.9471442 38.6766434,45.8527744 37.7642598,46.6793899 C37.6055551,46.8245879 37.4414476,46.9603311 37.2800414,47.1001264 C36.2947212,46.3829159 35.2844134,45.6576013 34.2477673,44.9680798 C34.3997187,44.805323 34.5530208,44.6479689 34.7029461,44.4804847 L34.7029461,44.4804847 Z M38.1039556,47.0542033 C39.0244432,46.2194838 39.8902284,45.3131782 40.729,44.4311849 C41.5684469,45.3138536 42.4328814,46.2194838 43.3540444,47.055554 C43.486411,47.1757644 43.6221542,47.2871954 43.7565467,47.4047045 C42.9650489,47.9800937 42.1526156,48.567639 41.3361302,49.1261447 C41.136905,49.2632386 40.9309265,49.3915531 40.7296753,49.5259457 C40.5270735,49.3908778 40.321095,49.261888 40.1205192,49.1234434 C39.3053844,48.565613 38.4943018,47.978743 37.7028039,47.4033538 C37.8351705,47.2865201 37.9722644,47.1737384 38.1039556,47.0542033 L38.1039556,47.0542033 Z M43.6944155,46.6787146 C42.7813566,45.8507484 41.9175974,44.9457936 41.0801765,44.0644756 C42.0432106,43.0521418 43.0413623,42.0303532 44.1259574,41.1071641 C44.9525729,42.2417344 45.8075526,43.4039936 46.7570799,44.4798093 C46.9056546,44.6472935 47.059632,44.8032969 47.2115834,44.9653784 C46.1735866,45.6549 45.1646295,46.3815652 44.1779586,47.0981004 C44.0158771,46.9583051 43.8531203,46.8239126 43.6944155,46.6787146 L43.6944155,46.6787146 Z M53.98929,40.7357274 C53.1505184,39.9759706 52.3563193,39.1507058 51.5830556,38.3389478 C52.0510658,38.2795179 52.5393362,38.2106333 53.0694777,38.1140597 C53.5314099,38.0296423 53.9730819,37.9188866 54.4073252,37.7966502 C55.2487981,38.4078324 56.115934,39.0372487 56.9884725,39.6355995 C57.1154363,39.7220429 57.2457769,39.803759 57.3727407,39.8895271 C57.1735155,39.9854253 56.9769918,40.0880769 56.7764159,40.1805984 C56.0247631,40.5283982 55.2663569,40.8572885 54.5066001,41.1868542 C54.3343885,41.0376042 54.1608263,40.8910555 53.98929,40.7357274 L53.98929,40.7357274 Z M52.9803329,37.6156592 C52.3178249,37.736545 51.7221755,37.812183 51.1434096,37.8810676 C50.2904559,36.9842168 49.4158913,36.0698072 48.4724421,35.2195548 C48.6487057,35.2519711 48.824294,35.2850628 49.0019082,35.3107257 C49.6603642,35.4059485 50.300586,35.4100006 50.9279763,35.3485447 C51.9369335,36.0130787 52.918877,36.7174577 53.8825864,37.4164341 C53.5861124,37.4900461 53.2876124,37.559606 52.9803329,37.6156592 L52.9803329,37.6156592 Z M44.3258579,32.5512887 C44.1874133,32.5229244 44.0489687,32.4952355 43.9098488,32.4668713 C43.4857356,32.3493622 43.0616224,32.2642694 42.6294052,32.1953848 C42.6793803,32.1866054 42.7259787,32.179852 42.7759539,32.1703972 C43.2453148,32.0853045 43.6937402,31.9725228 44.1347368,31.847585 C44.9086758,32.1832287 45.6927449,32.5276518 46.4720867,32.8882831 C45.7569022,32.84236 45.0538738,32.6998634 44.3258579,32.5512887 L44.3258579,32.5512887 Z M42.684783,31.6719967 C41.9750013,31.8009866 41.3428836,31.8800013 40.7283247,31.9522626 C40.1151164,31.881352 39.4836741,31.8016619 38.7765937,31.6733474 C38.5361728,31.6301257 38.303856,31.5720465 38.0695133,31.517344 C38.6590846,31.260715 39.2500066,31.006112 39.8328246,30.7359763 C40.1333506,30.5968563 40.4291493,30.4442296 40.726974,30.299707 C41.0247987,30.4442296 41.319922,30.596181 41.6197727,30.7359763 C42.205292,31.0067874 42.7948634,31.2613903 43.3844347,31.5180193 C43.1548193,31.5713712 42.9245285,31.628775 42.684783,31.6719967 L42.684783,31.6719967 Z M39.620768,30.2753948 C38.8481796,30.6333247 38.0681626,30.9709944 37.2888209,31.3086641 C36.2623049,31.0047614 35.2965695,30.602259 34.356497,30.1376255 C35.1122018,29.710811 35.8733094,29.2792691 36.6188841,28.8598833 C36.8322914,28.7396729 37.0531274,28.6147351 37.2678853,28.493174 C38.2160619,29.0192634 39.17707,29.5284693 40.1515848,30.0160644 C39.9739705,30.1018325 39.7990576,30.1930033 39.620768,30.2753948 L39.620768,30.2753948 Z M36.572961,31.622697 C35.681513,32.0110171 34.7846622,32.4141948 33.8945648,32.848438 C32.8916857,32.7356564 31.9225736,32.4418837 30.9899298,32.0508622 C31.9374311,31.5099153 32.8761529,30.9743711 33.8209528,30.4395022 C34.7090242,30.892655 35.6153297,31.2992094 36.572961,31.622697 L36.572961,31.622697 Z M33.1044176,33.2421609 C32.5729255,33.5176994 32.0475114,33.8047187 31.5322274,34.1146995 C31.1540373,34.3429642 30.7812499,34.5806837 30.4104886,34.8224552 C29.4251683,34.7049462 28.471589,34.4145502 27.5544781,34.0296067 C27.9644091,33.7912119 28.3750155,33.5487651 28.7835959,33.3123962 C29.3326468,32.995662 29.8877759,32.6816292 30.4402035,32.3655703 C31.2938326,32.7484878 32.1832546,33.0618453 33.1044176,33.2421609 L33.1044176,33.2421609 Z M29.7837736,35.2425164 C28.8180382,35.894219 27.876615,36.5709091 26.9547766,37.2401705 C25.9417675,36.9369431 24.9854868,36.5378174 24.0555444,36.0772359 C25.039514,35.4977947 26.0221329,34.9237562 27.0115052,34.3463409 C27.8995765,34.7447912 28.8234409,35.0662528 29.7837736,35.2425164 L29.7837736,35.2425164 Z M26.4367913,37.6149839 C25.6959439,38.1532294 24.9402391,38.6982283 24.1791315,39.2195904 C23.973153,39.360061 23.7610964,39.4931029 23.5537672,39.6315475 C22.5643949,39.1439524 21.585828,38.6347464 20.6200926,38.1039296 C20.8004083,37.9979013 20.9854513,37.8891717 21.1637409,37.7831434 C21.9430826,37.3225619 22.7399832,36.853201 23.533507,36.3858661 C24.4661508,36.8619804 25.4217561,37.2840675 26.4367913,37.6149839 L26.4367913,37.6149839 Z M23.0621201,39.955035 C22.0997614,40.5851268 21.1299739,41.1956336 20.1635632,41.7777762 C19.1856716,41.2266992 18.2057541,40.6735962 17.2150311,40.1117138 C18.1908966,39.5383506 19.1539307,38.9697148 20.1156141,38.401079 C21.0847262,38.9386492 22.0673451,39.4586606 23.0621201,39.955035 L23.0621201,39.955035 Z M23.5909109,40.2136901 C23.8826575,40.3555113 24.1710274,40.504086 24.4648001,40.6405046 C25.1455423,40.9558881 25.8330378,41.2537128 26.5212087,41.5522128 C25.5710061,42.3349313 24.5823092,43.038635 23.5693,43.7018183 C22.7393078,43.2324574 21.9039129,42.7597198 21.0867522,42.2998136 C20.9496583,42.2228249 20.8085123,42.1424595 20.6707431,42.0641201 C21.6439072,41.4738735 22.6224741,40.8525612 23.5909109,40.2136901 L23.5909109,40.2136901 Z M27.0391941,41.7804776 C28.0177609,42.2039154 29.0111853,42.6415354 29.9938042,43.1149483 C29.0287441,44.0914892 28.0643594,44.8877144 26.9824656,45.6420685 C26.0086261,45.0849135 25.0408646,44.5318105 24.0683758,43.9820842 C25.0867877,43.3067447 26.0802121,42.5834562 27.0391941,41.7804776 L27.0391941,41.7804776 Z M30.4712691,43.3526678 C31.1614661,43.6970909 31.8455849,44.0556962 32.5074176,44.4541464 C32.8288791,44.6493195 33.144938,44.8525967 33.4616722,45.0578999 C32.5195737,45.9993231 31.4984604,46.8266139 30.3895531,47.6079817 C29.8952046,47.3189364 29.4001808,47.0285404 28.9078583,46.7435472 C28.431744,46.468684 27.950227,46.1951715 27.4714113,45.9209837 C28.5404737,45.1592008 29.5028324,44.3494688 30.4712691,43.3526678 L30.4712691,43.3526678 Z M33.8979415,45.3401918 C34.9177041,46.0175573 35.9131544,46.7320664 36.8869939,47.4384715 C35.9151804,48.2434761 34.9028466,48.9647386 33.8655252,49.6421041 C32.8687242,49.0545588 31.8732738,48.4730915 30.8683687,47.8855462 C31.9576913,47.1082305 32.963947,46.2822903 33.8979415,45.3401918 L33.8979415,45.3401918 Z M37.3077304,47.7437249 C38.1323198,48.3434263 38.9805462,48.9573099 39.8328246,49.5414785 C39.9759965,49.6400781 40.1238959,49.7312489 40.2690938,49.8291731 C39.290527,50.4714209 38.303856,51.0927332 37.3232632,51.6823045 C37.0571794,51.5263011 36.7863683,51.3655703 36.5216352,51.2102423 C35.8071261,50.7881551 35.0764088,50.3566132 34.3517696,49.9297987 C35.3634281,49.2585113 36.3575278,48.5358981 37.3077304,47.7437249 L37.3077304,47.7437249 Z M40.729,50.1317252 C41.6947354,50.7685703 42.6692502,51.3878565 43.6390377,51.9747265 C42.6733023,52.5453884 41.7082422,53.1146995 40.729,53.6894134 C39.7504331,53.1140242 38.7853731,52.5453884 37.8189623,51.9747265 C38.7880744,51.3885319 39.7632646,50.7692456 40.729,50.1317252 L40.729,50.1317252 Z M41.1895815,49.8284978 C41.3320781,49.7312489 41.4799775,49.6407534 41.6224741,49.5421538 C42.4767785,48.9566345 43.3250048,48.342751 44.1482436,47.7430495 C45.1018229,48.5413008 46.0898445,49.2585113 47.1042044,49.9291233 C46.3890199,50.3505352 45.6691081,50.7746483 44.9660797,51.1906574 C44.6932426,51.3527389 44.4102753,51.5175217 44.1347368,51.6816292 C43.1534686,51.0927332 42.1667977,50.4700702 41.1895815,49.8284978 L41.1895815,49.8284978 Z M44.5703308,47.4384715 C45.5441703,46.7313911 46.5396206,46.0175573 47.5607338,45.3401918 C48.494053,46.2822903 49.5009841,47.1082305 50.5876052,47.8868969 C49.5840508,48.4724162 48.5879251,49.0545588 47.5911241,49.6427794 C46.5544781,48.9640633 45.5421442,48.2441514 44.5703308,47.4384715 L44.5703308,47.4384715 Z M47.9970031,45.0565492 C48.3137373,44.8519214 48.6304715,44.6486442 48.9519331,44.4534711 C49.6130904,44.0550208 50.2958586,43.6964156 50.9860555,43.3533431 C51.92005,44.296117 52.9276564,45.1234078 54.016979,45.9034249 C53.5280332,46.1836908 53.0357107,46.4612553 52.550817,46.7415211 C52.0584946,47.0265144 51.5634707,47.318261 51.0691223,47.6052803 C49.9602149,46.8252632 48.939777,45.9986478 47.9970031,45.0565492 L47.9970031,45.0565492 Z M51.4668972,43.1135976 C52.4481654,42.64086 53.4402391,42.2045907 54.4188059,41.7798022 C55.3764373,42.5827808 56.3705369,43.3060694 57.3889488,43.9814088 C56.4245641,44.5270831 55.4655821,45.0747834 54.500522,45.6265357 C53.4071474,44.8559734 52.399541,44.039488 51.4668972,43.1135976 L51.4668972,43.1135976 Z M54.9361159,41.5522128 C55.6236115,41.2537128 56.3104317,40.9558881 56.9904985,40.6405046 C57.2856219,40.504086 57.5739918,40.3555113 57.8657385,40.2130147 C58.8355259,40.8525612 59.8140928,41.4738735 60.7859062,42.0620941 C60.650163,42.1384075 60.5110431,42.2174222 60.3759752,42.2944109 C59.5567884,42.7563431 58.7207182,43.2290807 57.8873493,43.6997923 C56.8750155,43.0379596 55.8856432,42.3335806 54.9361159,41.5522128 L54.9361159,41.5522128 Z M58.3952046,39.955035 C59.3906549,39.4586606 60.3732738,38.9386492 61.3423859,38.401079 C62.3040693,38.9690395 63.2671034,39.5383506 64.2416182,40.1117138 C63.2522459,40.6735962 62.2709777,41.2253485 61.2930862,41.7777762 C60.3280261,41.1969843 59.3582386,40.5858021 58.3952046,39.955035 L58.3952046,39.955035 Z M57.9042328,39.6315475 C57.6948776,39.4924275 57.4834963,39.3593857 57.2761671,39.2182397 C56.5164103,38.697553 55.7620561,38.1525541 55.0205334,37.6149839 C56.0355686,37.2840675 56.9911739,36.8619804 57.924493,36.3858661 C58.7193675,36.8538763 59.5169434,37.3245879 60.2983112,37.7858447 C60.4752501,37.8905224 60.6596178,37.9985767 60.8365567,38.1039296 C59.872172,38.6347464 58.8929298,39.1439524 57.9042328,39.6315475 L57.9042328,39.6315475 Z M54.5032234,37.2401705 C53.581385,36.5709091 52.6392865,35.894219 51.6749018,35.2425164 C52.6352344,35.0662528 53.5590988,34.7447912 54.4464948,34.3470163 C55.4358671,34.9237562 56.418486,35.4977947 57.4011049,36.0772359 C56.4731885,36.5378174 55.5162325,36.9369431 54.5032234,37.2401705 L54.5032234,37.2401705 Z M51.0461607,34.8224552 C50.6767501,34.5806837 50.3032873,34.3429642 49.9250972,34.1146995 C49.417242,33.8080954 48.897906,33.5244528 48.3724919,33.2529664 C49.3301232,33.0645467 50.2087398,32.7619946 51.0448101,32.3824538 C51.5884583,32.69311 52.1341326,33.0017401 52.6737288,33.3130716 C53.0816338,33.5494404 53.4915649,33.7912119 53.9014959,34.0302821 C52.9837096,34.4138749 52.031481,34.7042708 51.0461607,34.8224552 L51.0461607,34.8224552 Z M47.8518051,32.838308 C47.7667124,32.8511394 47.6829703,32.8578928 47.5992282,32.8666722 C46.69765,32.4256756 45.7872925,32.0164198 44.8836883,31.622697 C45.8426703,31.2992094 46.7483005,30.892655 47.6350212,30.4401776 C48.5886005,30.9797738 49.5354264,31.5200454 50.491707,32.0657196 C49.6650916,32.4155455 48.8013324,32.69311 47.8518051,32.838308 L47.8518051,32.838308 Z M44.1678285,31.3093394 C43.3884867,30.9716697 42.607119,30.6333247 41.8345307,30.2753948 C41.6569164,30.1930033 41.4826788,30.1018325 41.3057399,30.0174151 C42.2795794,29.52982 43.2405874,29.0199387 44.1894393,28.4945246 C44.4055479,28.6167611 44.62841,28.7423742 44.8438433,28.8639353 C45.5880673,29.2826458 46.3478242,29.712837 47.1021784,30.1389762 C46.1607552,30.6029344 45.1936691,31.0054367 44.1678285,31.3093394 L44.1678285,31.3093394 Z M40.7283247,29.7351232 C39.7355757,29.2461774 38.7529568,28.7356208 37.7851954,28.2021027 C38.7624115,27.6510257 39.7409784,27.098598 40.729,26.5380663 C41.7170216,27.0992733 42.6949131,27.6510257 43.6728046,28.2021027 C42.7043679,28.7356208 41.7224243,29.2461774 40.7283247,29.7351232 L40.7283247,29.7351232 Z M37.2678853,27.912382 C36.5499995,27.5119057 35.8395424,27.1087281 35.134488,26.7028491 L38.0614092,25.0131498 C38.779295,25.4251068 39.4985315,25.8357132 40.2184434,26.2456443 C39.2277204,26.808202 38.2464522,27.3606297 37.2678853,27.912382 L37.2678853,27.912382 Z M31.1918563,28.9794184 C31.8942094,29.3873234 32.587783,29.784423 33.28811,30.1592364 C32.3277773,30.7022093 31.374198,31.2478836 30.4125146,31.7976099 C29.6736933,31.4545374 28.9605348,31.0621652 28.2683119,30.667767 L31.1918563,28.9794184 L31.1918563,28.9794184 Z M27.7618073,30.960189 C28.4439001,31.3532365 29.1496298,31.7476347 29.8789964,32.1028633 C29.4292204,32.3601676 28.9780936,32.6154459 28.5310189,32.8734256 C28.0157349,33.1712503 27.4991002,33.4758284 26.9824656,33.7770298 C26.2436442,33.4339573 25.5298104,33.0422605 24.8389382,32.6471869 L27.7618073,30.960189 L27.7618073,30.960189 Z M24.3310829,32.9409596 C25.0131757,33.3346824 25.7216068,33.729756 26.4523241,34.0863353 C25.4683545,34.6610491 24.4938397,35.2310356 23.5172989,35.8071002 C22.8095431,35.4383648 22.1098914,35.0399146 21.4041617,34.6306588 L24.3310829,32.9409596 L24.3310829,32.9409596 Z M20.8990078,34.9230808 C21.6047375,35.3330119 22.3023632,35.7328128 23.0067422,36.1083016 C22.3050645,36.5222846 21.5979841,36.9389691 20.9071119,37.3468741 C20.6457555,37.5015268 20.3742691,37.6609069 20.1102113,37.8169104 C19.3923255,37.4171094 18.6818684,37.0139318 17.9788401,36.6087281 L20.8990078,34.9230808 L20.8990078,34.9230808 Z M16.2033726,40.1164412 C15.4807594,40.539879 14.7567955,40.9606155 14.033507,41.3820273 L11.8724208,40.134 L14.0422864,38.8812453 C14.7608476,39.2938777 15.4800841,39.7058348 16.2033726,40.1164412 L16.2033726,40.1164412 Z M16.7112279,40.4068371 C17.7019509,40.9693949 18.6818684,41.5224979 19.661786,42.0749256 C18.9141852,42.5206496 18.1834679,42.9494902 17.4669328,43.3641486 L14.5386609,41.6737739 C15.2633001,41.2523621 15.9865887,40.8309503 16.7112279,40.4068371 L16.7112279,40.4068371 Z M20.1709919,42.3619448 C20.3911526,42.487558 20.6180666,42.6151971 20.8382273,42.7394596 C21.57975,43.1574947 22.3381562,43.5863353 23.089809,44.0117991 C22.3698971,44.4703546 21.6378292,44.9120266 20.8976571,45.3455945 L17.9734373,43.6572459 C18.6913232,43.2392108 19.4227158,42.8096949 20.1709919,42.3619448 L20.1709919,42.3619448 Z M23.5875342,44.292065 C24.5654257,44.8438173 25.5379145,45.3996217 26.517832,45.9594781 C25.8451939,46.4099295 25.1225807,46.8549782 24.3263555,47.3243391 L21.4001097,45.6359905 C22.138931,45.1997212 22.8696483,44.7546725 23.5875342,44.292065 L23.5875342,44.292065 Z M27.0101545,46.2404193 C27.5585301,46.5544521 28.1089318,46.8657836 28.654606,47.1804918 C29.0800699,47.4263153 29.5068844,47.678217 29.9336989,47.9267419 C29.2448527,48.3934014 28.5181875,48.8485802 27.7550539,49.303759 L24.8301587,47.6147351 C25.6189552,47.1453741 26.3381917,46.6969487 27.0101545,46.2404193 L27.0101545,46.2404193 Z M30.4158913,48.2090338 C31.4126923,48.7891504 32.4007139,49.3672409 33.3900862,49.9500589 C32.667473,50.409965 31.9340544,50.8529877 31.1905057,51.287231 L28.2561558,49.5934796 C29.014562,49.1383008 29.7310971,48.681096 30.4158913,48.2090338 L30.4158913,48.2090338 Z M33.877006,50.2364028 C34.6759325,50.7077897 35.4795865,51.1805273 36.2643309,51.6451609 C36.4486986,51.7545659 36.640495,51.8666722 36.8262133,51.9767525 C36.0759112,52.4238273 35.3424926,52.8540185 34.6246067,53.2700276 L31.6949842,51.5789776 C32.4202988,51.1508124 33.1496654,50.704413 33.877006,50.2364028 L33.877006,50.2364028 Z M37.3232632,52.2705252 C38.2862972,52.839161 39.2493313,53.4098228 40.2258721,53.9825107 C39.5012329,54.4066239 38.7765937,54.8293864 38.0526298,55.2494475 L35.1297606,53.5617742 C35.8469711,53.1464405 36.5770131,52.7169246 37.3232632,52.2705252 L37.3232632,52.2705252 Z M40.729,54.2749327 C41.4516132,54.6983705 42.1762524,55.119107 42.899541,55.5411941 L40.729,56.7946242 L38.558459,55.5418695 C39.2817476,55.1204577 40.0063868,54.6997212 40.729,54.2749327 L40.729,54.2749327 Z M41.2314525,53.9825107 C42.207318,53.4084722 43.1717028,52.8405117 44.1340615,52.2705252 C44.8796362,52.7169246 45.6110289,53.1464405 46.327564,53.5617742 L43.4046949,55.2494475 C42.6814063,54.828711 41.9554164,54.4066239 41.2314525,53.9825107 L41.2314525,53.9825107 Z M44.6317867,51.9767525 C44.8269598,51.8612695 45.0295616,51.7424098 45.2240594,51.6262514 C45.9979984,51.1683712 46.7908469,50.7017117 47.5782927,50.2364028 C48.2961785,50.6990103 49.0248698,51.1433837 49.7616651,51.5776269 L46.8327179,53.2686769 C46.1161828,52.8540185 45.3827641,52.4238273 44.6317867,51.9767525 L44.6317867,51.9767525 Z M48.0665631,49.9500589 C49.0572861,49.3665656 50.045983,48.7891504 51.040758,48.2083584 C51.7262276,48.6804207 52.4427627,49.1376255 53.1991429,49.594155 L50.2654683,51.2879063 C49.5239456,50.8529877 48.7898516,50.409965 48.0665631,49.9500589 L48.0665631,49.9500589 Z M51.5249764,47.9267419 C51.9511156,47.678217 52.3786055,47.4263153 52.8040693,47.1804918 C53.3558216,46.8617316 53.915678,46.5456727 54.4721577,46.2269125 C55.1583026,46.6989748 55.8755131,47.1568549 56.6318933,47.6140597 L53.7042968,49.3044343 C52.9404879,48.8485802 52.2138226,48.3934014 51.5249764,47.9267419 L51.5249764,47.9267419 Z M54.9584021,45.9479973 C55.932917,45.3921929 56.8973017,44.8404406 57.8697905,44.292065 C58.5883517,44.7553478 59.3183936,45.2003965 60.0565396,45.6353151 L57.1343458,47.3223131 C56.3732383,46.8691603 55.6472484,46.4146569 54.9584021,45.9479973 L54.9584021,45.9479973 Z M58.368191,44.0104484 C59.1225452,43.5843092 59.8809514,43.154118 60.6251754,42.7360829 C60.8433101,42.6124958 61.0681981,42.485532 61.2870081,42.3612695 C62.0339335,42.8090195 62.7660015,43.2385354 63.4845627,43.6552199 L60.5603429,45.3435685 C59.8208462,44.9106759 59.0887782,44.4690039 58.368191,44.0104484 L58.368191,44.0104484 Z M61.7948634,42.0756009 C62.7747809,41.5231732 63.7560491,40.9693949 64.7467721,40.4068371 C65.470736,40.8316256 66.1953752,41.2523621 66.9193391,41.6737739 L63.9910672,43.3648239 C63.2752074,42.9494902 62.5444902,42.5206496 61.7948634,42.0756009 L61.7948634,42.0756009 Z M65.2546274,40.1164412 C65.9772406,39.7065101 66.6971524,39.2945531 67.4163889,38.8812453 L69.5855792,40.134 L67.4251683,41.3820273 C66.7012045,40.9626415 65.9792666,40.5405543 65.2546274,40.1164412 L65.2546274,40.1164412 Z M61.3477887,37.8169104 C61.0850816,37.6622576 60.8162965,37.5035529 60.5549401,37.3495755 C59.8633925,36.9403198 59.1542861,36.52296 58.4512578,36.1083016 C59.1549615,35.7321375 59.8532625,35.3330119 60.5589922,34.9230808 L63.4805106,36.6094034 C62.7761316,37.0146071 62.0670252,37.4171094 61.3477887,37.8169104 L61.3477887,37.8169104 Z M54.4748591,33.7770298 C53.9582244,33.4758284 53.4429404,33.1719256 52.9276564,32.8741009 C52.4880104,32.6201733 52.0416111,32.3682717 51.6006144,32.1150194 C52.3090455,31.7631676 52.9992424,31.3694447 53.6982187,30.9615396 L56.6190618,32.6478622 C55.9288649,33.0429358 55.2143558,33.4346327 54.4748591,33.7770298 L54.4748591,33.7770298 Z M51.0677716,31.8104413 C50.0986595,31.256663 49.1369761,30.7069367 48.1685393,30.1592364 C48.8688664,29.7850983 49.5631153,29.3873234 50.2654683,28.9794184 L53.1930648,30.6691177 C52.4866598,31.0790487 51.7870081,31.4693949 51.0677716,31.8104413 L51.0677716,31.8104413 Z M44.1901147,27.912382 C43.2115478,27.3606297 42.2302796,26.808202 41.2395566,26.2463196 C41.9594685,25.8370639 42.678705,25.4257822 43.3959155,25.0138251 L46.3228366,26.7035244 C45.6184576,27.1087281 44.9080005,27.5119057 44.1901147,27.912382 L44.1901147,27.912382 Z M40.729,25.954573 C40.0077375,25.5446419 39.288501,25.1326849 38.5699398,24.7200525 L40.729,23.4733758 L42.8880602,24.7200525 C42.169499,25.1326849 41.4502625,25.5446419 40.729,25.954573 L40.729,25.954573 Z" id="Shape" fill="#000000" sketch:type="MSShapeGroup"></path>
    </g>
</svg>