<?xml version="1.0" encoding="UTF-8" standalone="no"?>
<svg width="80px" height="80px" viewBox="0 0 80 80" version="1.1" xmlns="http://www.w3.org/2000/svg" xmlns:xlink="http://www.w3.org/1999/xlink" xmlns:sketch="http://www.bohemiancoding.com/sketch/ns">
    <!-- Generator: Sketch 3.3.3 (12081) - http://www.bohemiancoding.com/sketch -->
    <title>icon-breach</title>
    <desc>Created with Sketch.</desc>
    <defs>
        <filter x="-50%" y="-50%" width="200%" height="200%" filterUnits="objectBoundingBox" id="filter-1">
            <feOffset dx="0" dy="2" in="SourceAlpha" result="shadowOffsetOuter1"></feOffset>
            <feGaussianBlur stdDeviation="2" in="shadowOffsetOuter1" result="shadowBlurOuter1"></feGaussianBlur>
            <feColorMatrix values="0 0 0 0 0   0 0 0 0 0   0 0 0 0 0  0 0 0 0.35 0" in="shadowBlurOuter1" type="matrix" result="shadowMatrixOuter1"></feColorMatrix>
            <feMerge>
                <feMergeNode in="shadowMatrixOuter1"></feMergeNode>
                <feMergeNode in="SourceGraphic"></feMergeNode>
            </feMerge>
        </filter>
    </defs>
    <g id="icon-breach" stroke="none" stroke-width="1" fill="none" fill-rule="evenodd" sketch:type="MSPage">
        <g id="Oval-1-Copy-+-dike" sketch:type="MSLayerGroup" transform="translate(4.000000, 4.000000)">
            <circle id="Oval-1-Copy" fill="#FFFFFF" filter="url(#filter-1)" sketch:type="MSShapeGroup" cx="36" cy="36" r="36"></circle>
            <g id="dike" transform="translate(14.000000, 14.000000)" fill="#000000" sketch:type="MSShapeGroup">
                <path d="M17.5724099,43.4567222 L6.94796741,0.245055556 C6.92855918,0.165 6.85530875,0.108166667 6.77016295,0.108166667 L1.01843911,0.108166667 C0.970231561,0.108166667 0.923276158,0.127111111 0.888842196,0.160722222 C0.855034305,0.193111111 0.835,0.239555556 0.835,0.287222222 L0.835,43.4988889 C0.835,43.5459444 0.855034305,43.5917778 0.888842196,43.6247778 C0.923276158,43.6583889 0.970231561,43.6773333 1.01843911,43.6773333 L17.3946055,43.6773333 C17.4503259,43.6773333 17.503542,43.6522778 17.537976,43.6101111 C17.573036,43.5655 17.5855575,43.5098889 17.5724099,43.4567222 L17.5724099,43.4567222 Z" id="Shape"></path>
                <path d="M18.9816981,34.9280556 C19.5082247,35.1352222 20.0766981,35.2482778 20.6864923,35.2482778 L20.7384563,35.2482778 L20.7346998,35.2482778 C21.3563894,35.2403333 21.9317496,35.1168889 22.4614065,34.8993333 C22.9904374,34.6811667 23.4712607,34.3658333 23.8800858,33.9753333 C24.0616467,33.8017778 24.2619897,33.6593889 24.4723499,33.5414444 C25.2837393,32.8618889 26.1965523,32.2929444 27.2001458,31.8786111 C28.4147256,31.3762778 29.7532676,31.0921111 31.1450257,31.0774444 L31.1368868,31.0774444 C31.1838422,31.0774444 31.2264151,31.0768333 31.2646055,31.0768333 C32.633199,31.0768333 33.9535849,31.3377778 35.1575214,31.8126111 C36.3627101,32.2868333 37.4533276,32.9725 38.3836707,33.8213333 L38.4281218,33.8628889 L38.6234563,34.0486667 C39.0335334,34.4220556 39.5124786,34.7221111 40.0352487,34.9274444 C40.5611492,35.1346111 41.1302487,35.2476667 41.7400429,35.2476667 L41.7920069,35.2476667 L41.7888765,35.2476667 C42.4086878,35.2397222 42.9853002,35.1162778 43.514331,34.8987222 C44.0433619,34.6799444 44.5254374,34.3646111 44.9342624,33.9747222 C44.9367667,33.9741111 44.9373928,33.9716667 44.9386449,33.9710556 L44.9386449,28.3390556 C44.9373928,28.3408889 44.9367667,28.3415 44.9342624,28.3433333 C44.5260635,28.7338333 44.0433619,29.0485556 43.514331,29.2673333 C42.9859262,29.4855 42.410566,29.6089444 41.7913808,29.6156667 L41.7375386,29.6156667 C41.1289966,29.6156667 40.5605232,29.5013889 40.0352487,29.2954444 C39.5124786,29.0901111 39.0329074,28.7906667 38.6222041,28.4166667 L38.4281218,28.2315 L38.3842967,28.1899444 C37.4533276,27.3405 36.362084,26.6542222 35.1562693,26.1806111 C33.9517067,25.7057778 32.6313208,25.4448333 31.2633533,25.4448333 C31.225789,25.4448333 31.1832161,25.4454444 31.1362607,25.4460556 L31.1450257,25.4454444 C29.7532676,25.4601111 28.4153516,25.7442778 27.2001458,26.2466111 C26.1959262,26.6615556 25.2818611,27.2298889 24.4698456,27.9118889 C24.2601115,28.0298333 24.0616467,28.1716111 23.8800858,28.3439444 C23.4718868,28.7350556 22.9898113,29.0491667 22.4614065,29.2679444 C21.9323756,29.4861111 21.3576415,29.6095556 20.7378302,29.6162778 L20.683988,29.6162778 C20.075446,29.6162778 19.5075986,29.502 18.981072,29.2960556 C18.458928,29.0907222 17.9799828,28.7912778 17.5692796,28.4172778 L17.3783276,28.2351667 L17.3301201,28.1905556 C17.1798628,28.0524444 17.0183362,27.9265556 16.8593139,27.7976111 L18.6091852,34.7612222 C18.7318954,34.8223333 18.8552316,34.8785556 18.9816981,34.9280556 L18.9816981,34.9280556 Z" id="Shape"></path>
                <path d="M44.9342624,36.7430556 C44.5260635,37.1341667 44.0433619,37.4476667 43.514331,37.6664444 C42.9853002,37.8852222 42.4086878,38.0098889 41.7888765,38.0166111 L41.7920069,38.0166111 L41.7400429,38.0166111 C41.1302487,38.0166111 40.5611492,37.9029444 40.0352487,37.6957778 C39.5124786,37.4904444 39.0335334,37.1916111 38.6234563,36.817 L38.4281218,36.6324444 L38.3836707,36.5902778 C37.4533276,35.7414444 36.362084,35.0557778 35.1575214,34.5815556 C33.9535849,34.1067222 32.633199,33.8457778 31.2646055,33.8457778 C31.225789,33.8457778 31.1838422,33.8463889 31.1368868,33.847 L31.1450257,33.847 C29.7532676,33.8610556 28.4153516,34.1452222 27.2001458,34.6475556 C26.1959262,35.0625 25.2831132,35.6308333 24.4723499,36.311 C24.2619897,36.4289444 24.0616467,36.5707222 23.8800858,36.7442778 C23.4718868,37.1353889 22.9904374,37.4495 22.4614065,37.6676667 C21.9317496,37.8864444 21.3563894,38.0111111 20.7346998,38.0178333 L20.7384563,38.0178333 L20.6864923,38.0178333 C20.0766981,38.0178333 19.5082247,37.9041667 18.9816981,37.697 C18.8552316,37.6475 18.7318954,37.5918889 18.6091852,37.5313889 L20.1662264,43.7280556 C20.3390223,43.7366111 20.5118182,43.7408889 20.6858662,43.7408889 C20.7234305,43.7408889 20.7603688,43.7408889 20.8004374,43.7396667 L20.8035678,43.7396667 C22.1946998,43.7243889 23.5307376,43.4402222 24.7459434,42.9378889 C25.7495369,42.5229444 26.662976,41.9552222 27.4731132,41.2750556 C27.6834734,41.1577222 27.8838165,41.0147222 28.0660034,40.8411667 C28.4748285,40.4506667 28.9556518,40.1359444 29.4840566,39.9177778 C30.0137136,39.699 30.5890738,39.5755556 31.2076329,39.5694444 L31.217024,39.5682222 L31.2646055,39.5682222 C31.8718954,39.5682222 32.4403688,39.6831111 32.9656432,39.8890556 C33.4877873,40.0943889 33.9654803,40.3938333 34.3743053,40.766 L34.5696398,40.9523889 L34.6134648,40.9939444 C35.5456861,41.8446111 36.6375557,42.5302778 37.8433705,43.0051111 C39.0491852,43.4793333 40.3708233,43.7402778 41.7394168,43.7402778 C41.7776072,43.7402778 41.8139194,43.7402778 41.853988,43.7390556 L41.8571184,43.7390556 C42.9264494,43.7274444 43.9632247,43.5551111 44.9380189,43.2489444 L44.9380189,36.7406111 C44.9367667,36.7406111 44.9361407,36.7418333 44.9342624,36.7430556 L44.9342624,36.7430556 Z" id="Shape"></path>
                <path d="M7.27212494,9.65582526 L18.9646579,9.65582522 L18.9646579,6.27315796 L27.5945743,11.9256866 L18.9646579,17.1565547 L18.9646581,14.0175196 L7.27212494,14.0175198 L7.27212494,9.65582526 Z" id="arrow-copy"></path>
            </g>
        </g>
    </g>
</svg>