<?xml version="1.0" encoding="UTF-8" standalone="no"?>
<svg width="97px" height="73px" viewBox="0 0 97 73" version="1.1" xmlns="http://www.w3.org/2000/svg" xmlns:xlink="http://www.w3.org/1999/xlink" xmlns:sketch="http://www.bohemiancoding.com/sketch/ns">
    <!-- Generator: Sketch 3.1.1 (8761) - http://www.bohemiancoding.com/sketch -->
    <title>icon-clouds 2</title>
    <desc>Created with Sketch.</desc>
    <defs></defs>
    <g id="Page-1" stroke="none" stroke-width="1" fill="none" fill-rule="evenodd" sketch:type="MSPage">
        <g id="icon-cloud" sketch:type="MSLayerGroup" transform="translate(7.000000, 4.000000)" fill="#312E2E">
            <g id="Group" sketch:type="MSShapeGroup">
                <path d="M80.0196072,27.0857078 C80.0196072,33.7537053 76.3699306,38.1399064 76.3699306,38.1399064 C76.3699306,38.1399064 71.8425355,44.6392216 64.3956104,44.8972872 C56.9486853,45.1553527 8.26304568,45.157492 8.26304568,45.157492 C8.27616364,45.122182 0.133666226,43.482655 0.133665865,36.28287 C0.133665505,29.083085 5.85966484,26.810142 7.06791412,26.8101421 C6.93985705,26.8411376 8.62675261,19.7717771 17.1969471,18.6660224 C17.2234487,18.701119 17.8479093,1.51420808 35.7455465,0.0450832166 C35.6758055,0.0782065283 47.5388909,-1.05404734 54.1031949,11.0397675 C54.1123161,11.05767 65.727082,4.64957225 75.7031366,14.8681507 C75.7584759,14.7637937 80.0196072,20.4177104 80.0196072,27.0857078 Z" id="Path-1"></path>
            </g>
            <g id="Oval-1-+-Path-2" transform="translate(22.187500, 49.894737)" sketch:type="MSShapeGroup">
                <path d="M10.6150726,11.0677503 C10.4459294,13.8785299 8.13654664,16.1052632 5.3125,16.1052632 C2.37848727,16.1052632 0,13.7017392 0,10.7368421 C0,8.7623986 1.05480216,7.03691062 2.62603403,6.10441772 L2.60719366,6.0927128 C2.60719366,6.0927128 10.0357599,1.73536706 11.4130462,-0.0889284243 C10.5747578,2.38830777 10.579528,8.24992251 10.6097974,10.3276392 C10.6198716,10.4627068 10.625,10.5991692 10.625,10.7368421 C10.625,10.804516 10.6237608,10.8718974 10.6213042,10.9389645 C10.623408,11.0269168 10.6247901,11.0737874 10.6247901,11.0737874 L10.6150726,11.0677503 Z" id="Oval-1"></path>
            </g>
            <g id="Oval-1-+-Path-2" transform="translate(40.312500, 49.894737)" sketch:type="MSShapeGroup">
                <path d="M10.6150726,11.0677503 C10.4459294,13.8785299 8.13654664,16.1052632 5.3125,16.1052632 C2.37848727,16.1052632 0,13.7017392 0,10.7368421 C0,8.7623986 1.05480216,7.03691062 2.62603403,6.10441772 L2.60719366,6.0927128 C2.60719366,6.0927128 10.0357599,1.73536706 11.4130462,-0.0889284243 C10.5747578,2.38830777 10.579528,8.24992251 10.6097974,10.3276392 C10.6198716,10.4627068 10.625,10.5991692 10.625,10.7368421 C10.625,10.804516 10.6237608,10.8718974 10.6213042,10.9389645 C10.623408,11.0269168 10.6247901,11.0737874 10.6247901,11.0737874 L10.6150726,11.0677503 Z" id="Oval-1"></path>
            </g>
        </g>
    </g>
</svg>