<?xml version="1.0" encoding="UTF-8" standalone="no"?>
<svg width="80px" height="80px" viewBox="0 0 80 80" version="1.1" xmlns="http://www.w3.org/2000/svg" xmlns:xlink="http://www.w3.org/1999/xlink" xmlns:sketch="http://www.bohemiancoding.com/sketch/ns">
    <!-- Generator: Sketch 3.3.3 (12081) - http://www.bohemiancoding.com/sketch -->
    <title>icon-pumpstation-ii</title>
    <desc>Created with Sketch.</desc>
    <defs></defs>
    <g id="icon-pumpstation-ii" stroke="none" stroke-width="1" fill="none" fill-rule="evenodd" sketch:type="MSPage">
        <g sketch:type="MSLayerGroup" transform="translate(5.000000, 9.000000)" id="Shape" fill="#000000">
            <path d="M31.5,2.72222222 C47.3666667,2.72222222 60.2,15.5555556 60.2,31.4222222 C60.2,47.2888889 47.3666667,60.0444444 31.5,60.0444444 C15.6333333,60.0444444 2.87777778,47.2111111 2.87777778,31.3444444 C2.87777778,15.4777778 15.7111111,2.72222222 31.5,2.72222222 L31.5,2.72222222 Z M31.5,0.233333333 C14.3111111,0.233333333 0.388888889,14.2333333 0.388888889,31.3444444 C0.388888889,48.4555556 14.3888889,62.4555556 31.5,62.4555556 C48.6111111,62.4555556 62.6111111,48.4555556 62.6111111,31.3444444 C62.6111111,14.2333333 48.6888889,0.233333333 31.5,0.233333333 L31.5,0.233333333 L31.5,0.233333333 Z" sketch:type="MSShapeGroup"></path>
            <path d="M41.6111111,33.9111111 C42.1555556,33.9111111 42.5444444,34.3 42.5444444,34.8444444 C42.5444444,46.5111111 33.0555556,56 21.4666667,56 C20.9222222,56 20.5333333,55.6111111 20.5333333,55.0666667 C20.5333333,54.5222222 20.9222222,54.1333333 21.4666667,54.1333333 C32.0444444,54.1333333 40.6777778,45.5 40.6777778,34.9222222 C40.6,34.3777778 41.0666667,33.9111111 41.6111111,33.9111111 L41.6111111,33.9111111 Z" sketch:type="MSShapeGroup"></path>
            <path d="M38.8111111,23.9555556 C39.0444444,23.4888889 39.6666667,23.3333333 40.1333333,23.6444444 C50.2444444,29.4777778 53.6666667,42.3888889 47.9111111,52.4222222 C47.6777778,52.8888889 47.0555556,53.0444444 46.5888889,52.7333333 C46.1222222,52.5 45.9666667,51.8777778 46.2777778,51.4111111 C51.5666667,42.2333333 48.3777778,30.4888889 39.2,25.2 C38.6555556,24.9666667 38.5,24.3444444 38.8111111,23.9555556 L38.8111111,23.9555556 Z" sketch:type="MSShapeGroup"></path>
            <path d="M28.7,21.3111111 C28.4666667,20.8444444 28.6222222,20.3 29.0111111,19.9888889 C39.0444444,14.1555556 52.0333333,17.5777778 57.8666667,27.6888889 C58.1,28.1555556 57.9444444,28.7 57.5555556,29.0111111 C57.1666667,29.3222222 56.5444444,29.0888889 56.2333333,28.7 C50.9444444,19.5222222 39.2,16.4111111 30.0222222,21.7 C29.5555556,21.9333333 29.0111111,21.7777778 28.7,21.3111111 L28.7,21.3111111 Z" sketch:type="MSShapeGroup"></path>
            <path d="M21.4666667,28.7777778 C20.9222222,28.7777778 20.5333333,28.3888889 20.5333333,27.8444444 C20.5333333,16.2555556 29.9444444,6.76666667 41.5333333,6.68888889 C42.0777778,6.68888889 42.4666667,7.07777778 42.4666667,7.62222222 C42.4666667,8.16666667 42.0777778,8.55555556 41.5333333,8.55555556 C30.9555556,8.55555556 22.4,17.1888889 22.4,27.7666667 C22.4,28.3888889 21.9333333,28.7777778 21.4666667,28.7777778 L21.4666667,28.7777778 Z" sketch:type="MSShapeGroup"></path>
            <path d="M24.2666667,38.8111111 C24.0333333,39.2777778 23.4111111,39.4333333 22.9444444,39.2 C12.8333333,33.4444444 9.33333333,20.5333333 15.1666667,10.4222222 C15.4,9.95555556 16.0222222,9.8 16.4888889,10.0333333 C16.9555556,10.2666667 17.1111111,10.8888889 16.8777778,11.3555556 C11.5888889,20.5333333 14.7777778,32.2777778 23.9555556,37.5666667 C24.3444444,37.7222222 24.5,38.3444444 24.2666667,38.8111111 L24.2666667,38.8111111 Z" sketch:type="MSShapeGroup"></path>
            <path d="M34.0666667,42.7 C24.0333333,48.5333333 11.1222222,45.1111111 5.21111111,35.0777778 C4.97777778,34.6111111 5.13333333,34.0666667 5.52222222,33.7555556 C5.91111111,33.4444444 6.53333333,33.6777778 6.84444444,34.0666667 C12.1333333,43.2444444 23.9555556,46.2777778 33.0555556,40.9888889 C33.5222222,40.7555556 34.0666667,40.9111111 34.3777778,41.3777778 C34.6111111,41.8444444 34.4555556,42.3888889 34.0666667,42.7 Z" sketch:type="MSShapeGroup"></path>
            <path d="M31.5,39.7444444 C26.9111111,39.7444444 23.1,36.0111111 23.1,31.3444444 C23.1,26.7555556 26.8333333,22.9444444 31.5,22.9444444 C36.0888889,22.9444444 39.9,26.6777778 39.9,31.3444444 C39.9,36.0111111 36.1666667,39.7444444 31.5,39.7444444 L31.5,39.7444444 Z M31.5,25.4333333 C28.2333333,25.4333333 25.5888889,28.0777778 25.5888889,31.3444444 C25.5888889,34.6111111 28.2333333,37.2555556 31.5,37.2555556 C34.7666667,37.2555556 37.4111111,34.6111111 37.4111111,31.3444444 C37.4111111,28.0777778 34.7666667,25.4333333 31.5,25.4333333 L31.5,25.4333333 Z" sketch:type="MSShapeGroup"></path>
        </g>
    </g>
</svg>