<?xml version="1.0" encoding="UTF-8" standalone="no"?>
<svg width="55px" height="55px" viewBox="0 0 55 55" version="1.1" xmlns="http://www.w3.org/2000/svg" xmlns:xlink="http://www.w3.org/1999/xlink" xmlns:sketch="http://www.bohemiancoding.com/sketch/ns">
    <!-- Generator: Sketch 3.3.3 (12081) - http://www.bohemiancoding.com/sketch -->
    <title>icon-simulation</title>
    <desc>Created with Sketch.</desc>
    <defs></defs>
    <g id="icon-simulation" stroke="none" stroke-width="1" fill="none" fill-rule="evenodd" sketch:type="MSPage">
        <g sketch:type="MSLayerGroup" transform="translate(5.000000, 5.000000)">
            <path d="M22.5,45 C34.9264069,45 45,34.9264069 45,22.5 C45,10.0735931 34.9264069,0 22.5,0 C10.0735931,0 0,10.0735931 0,22.5 C0,34.9264069 10.0735931,45 22.5,45 Z M22.5,41 C32.7172679,41 41,32.7172679 41,22.5 C41,12.2827321 32.7172679,4 22.5,4 C12.2827321,4 4,12.2827321 4,22.5 C4,32.7172679 12.2827321,41 22.5,41 Z" id="Oval-1" fill="#D8D8D8" sketch:type="MSShapeGroup"></path>
            <path d="M9.94876821,28.2529138 C10.1411523,28.1903925 10.3275043,28.1211567 10.5072523,28.0444542 C11.1967977,27.7502098 11.8124653,27.0897984 12.6218185,25.9949157 C12.7951621,25.7604187 12.9735722,25.5090529 13.1561971,25.2430016 C13.517797,24.7162159 13.8799364,24.1557519 14.2267192,23.5957796 C14.4348608,23.2596802 14.5926947,22.9966686 14.6831233,22.8422785 L14.5886798,22.9843315 C14.6344461,22.9233266 14.7696372,22.7778463 14.9589263,22.6308154 C15.6186342,22.118385 16.0974119,22.1243491 16.9293828,23.1225538 C17.0897696,23.315295 17.9838372,24.4052544 18.2432658,24.7130884 C18.7474688,25.3113681 19.1576012,25.7626785 19.5612099,26.1491811 C20.7498036,27.2873986 21.8844631,27.8517931 23.1810736,27.6087912 C24.3500612,27.3897075 25.2949041,26.5328325 26.118352,25.1092049 L26.1785377,25.0051522 L26.2213849,24.8928427 L29.4306608,16.4807924 L29.3143545,16.7196486 C29.3374766,16.6812329 29.4210947,16.568988 29.5316144,16.4618017 C29.6394769,16.3571926 29.702315,16.3239364 29.6679192,16.3239364 C29.7277425,16.3963191 29.8720968,16.5448516 30.0432371,16.7944249 L29.8778016,16.4780399 L32.8442727,24.2997324 C33.0828623,24.8660042 33.4634127,25.5822498 34.0090488,26.3125772 C34.6353606,27.1508881 35.3449632,27.8065235 36.1805074,28.1974546 L37.4518615,25.4801658 C37.1338511,25.3313763 36.7687927,24.9940815 36.4123768,24.5170231 C36.1930856,24.2235044 35.9940579,23.9012614 35.8226753,23.578697 C35.7216333,23.3885228 35.6554326,23.247567 35.6280755,23.1829562 L32.6828391,15.4141957 L32.6190825,15.2460885 L32.5174037,15.0978107 C30.9857722,12.8642381 28.9319433,12.8642381 27.4430202,14.3082525 C27.1196346,14.6218842 26.8897596,14.9304573 26.7440237,15.172587 L26.6752527,15.286845 L26.6277173,15.4114432 L23.4184414,23.8234935 L23.5214742,23.6071312 C23.0933417,24.3473131 22.7796593,24.6317906 22.6284552,24.6601283 C22.2820398,24.7250511 21.7072693,24.174641 19.268547,21.2434317 C17.2776479,18.8546991 14.9669109,18.8259146 13.1186171,20.261583 C12.6919057,20.5930325 12.3824573,20.9260326 12.1889175,21.1840146 L12.0944741,21.3260677 C12.0157821,21.4604197 11.8703851,21.7027067 11.6761955,22.0162769 C11.3524265,22.5390874 11.0149343,23.0614061 10.682833,23.5452177 C10.5191113,23.7837306 10.360744,24.0068577 10.2093871,24.2116112 C9.74297179,24.8425719 9.33071844,25.2847859 9.3298064,25.2851751 C9.23501712,25.3256238 9.131863,25.3639489 9.0215566,25.3997965 C8.70539825,25.5025422 8.35115655,25.5788263 7.99461671,25.6295454 C7.78121651,25.6599023 7.62188943,25.674249 7.54813847,25.6780021 L7.7006089,28.674125 C8.28612408,28.6443286 9.10107379,28.5283992 9.94876821,28.2529138 Z" id="Path-1" fill="#979797" sketch:type="MSShapeGroup"></path>
        </g>
    </g>
</svg>